<svg xmlns="http://www.w3.org/2000/svg" width="96.44" height="96.44" viewBox="0 0 96.44 96.44">
  <g id="cloud" transform="translate(-2 -2)">
    <path id="Path_149" data-name="Path 149" d="M32,29a1,1,0,0,1,1,1h2a3,3,0,0,0-2-2.816V26H31v1.184A2.993,2.993,0,0,0,32,33a1,1,0,1,1-1,1H29a3,3,0,0,0,2,2.816V38h2V36.816A2.993,2.993,0,0,0,32,31a1,1,0,0,1,0-2Z" transform="translate(18.22 18.22)" fill="#fff"/>
    <path id="Path_150" data-name="Path 150" d="M89.537,15.1a9.159,9.159,0,0,0-15.485-1.448,9.152,9.152,0,0,0-11.8,1.628A36.572,36.572,0,0,0,46.4,13.473a9.742,9.742,0,0,0-8.3-6.407,9.157,9.157,0,0,0-15.483-1.45A9.176,9.176,0,0,0,8.484,13.335v.915H7.929a5.93,5.93,0,0,0,0,11.861H22.2a36.558,36.558,0,0,0-8.948,24.11A37.019,37.019,0,0,0,46.1,86.954,5.917,5.917,0,0,0,48.113,98.44H77.882a9.1,9.1,0,0,0,9.306-9.306,9.81,9.81,0,0,0-8.9-9.739A9.192,9.192,0,0,0,76.1,76.6a36.908,36.908,0,0,0,7.4-42.455h5.635a9.1,9.1,0,0,0,9.3-9.306,9.811,9.811,0,0,0-8.9-9.739ZM54.124,30.932h-2.3V16.5a33.18,33.18,0,0,1,8.71,1.586,9.1,9.1,0,0,0-.619,3.284v.915h-.555a5.937,5.937,0,0,0-5.929,5.931A5.854,5.854,0,0,0,54.124,30.932ZM5.215,20.181a2.719,2.719,0,0,1,2.715-2.716h2.162A1.607,1.607,0,0,0,11.7,15.857V13.335a5.965,5.965,0,0,1,5.958-5.958,5.9,5.9,0,0,1,4.235,1.771,1.608,1.608,0,0,0,2.6-.456,5.948,5.948,0,0,1,11.021.5,1.608,1.608,0,0,0,1.514,1.07h.439a6.521,6.521,0,0,1,6.32,6.545A5.957,5.957,0,0,1,37.7,22.9H7.929a2.719,2.719,0,0,1-2.715-2.715ZM37.7,26.11a9.1,9.1,0,0,0,9.3-9.306c0-.056-.006-.111-.008-.166.54-.053,1.079-.09,1.615-.116v14.41H35.78c.125-.336.239-.682.371-1.009l-2.985-1.194c-.288.718-.556,1.456-.812,2.205h-9.84a34.308,34.308,0,0,1,4.134-4.822H37.7ZM64.591,51.827h3.276a57.468,57.468,0,0,1-2.139,14.466h-13.9v-1.7A14.486,14.486,0,0,0,64.591,51.827Zm19.339,0a33.724,33.724,0,0,1-4.05,14.466H69.064a61.281,61.281,0,0,0,2.017-14.466ZM48.613,83.813c-5.213-.947-9.845-6.434-12.783-14.305H48.613ZM34.754,66.293a57.358,57.358,0,0,1-2.17-14.466H35.85A14.486,14.486,0,0,0,48.614,64.591v1.7ZM16.548,51.827h12.8a62.055,62.055,0,0,0,1.985,14.466H20.545A33.524,33.524,0,0,1,16.548,51.827Zm0-3.215a33.358,33.358,0,0,1,3.991-14.466H31.376a61.281,61.281,0,0,0-2.017,14.466ZM50.22,61.471A11.251,11.251,0,1,1,61.471,50.22,11.265,11.265,0,0,1,50.22,61.471ZM48.613,35.849A14.486,14.486,0,0,0,35.849,48.613H32.573a57.468,57.468,0,0,1,2.139-14.466h13.9ZM22.559,69.508H32.3a33.565,33.565,0,0,0,7.347,12.746A33.879,33.879,0,0,1,22.559,69.508Zm54.657,13.08h.439a6.521,6.521,0,0,1,6.318,6.545,5.957,5.957,0,0,1-6.09,6.092H48.113a2.716,2.716,0,0,1,0-5.431h2.162a1.607,1.607,0,0,0,1.607-1.607V85.665a5.965,5.965,0,0,1,5.958-5.958,5.9,5.9,0,0,1,4.235,1.771,1.608,1.608,0,0,0,2.6-.456,5.948,5.948,0,0,1,11.021.5A1.609,1.609,0,0,0,77.217,82.588ZM70.09,74.33A9.2,9.2,0,0,0,62.8,77.946a9.148,9.148,0,0,0-10.973.808V69.508H64.66c-.125.336-.239.682-.371,1.009l2.985,1.194c.288-.718.556-1.456.812-2.205h9.808a33.862,33.862,0,0,1-4.682,5.4A9.115,9.115,0,0,0,70.09,74.33ZM83.921,48.613H71.075a62.956,62.956,0,0,0-1.31-11.586l-3.146.67A59.528,59.528,0,0,1,67.86,48.614H64.591A14.486,14.486,0,0,0,51.827,35.85v-1.7H79.879A33.732,33.732,0,0,1,83.921,48.613Zm5.214-17.681H59.364a2.716,2.716,0,0,1,0-5.431h2.162a1.607,1.607,0,0,0,1.607-1.607V21.372a5.965,5.965,0,0,1,5.958-5.958,5.9,5.9,0,0,1,4.235,1.771,1.608,1.608,0,0,0,2.6-.456,5.948,5.948,0,0,1,11.021.5,1.608,1.608,0,0,0,1.514,1.07h.439a6.521,6.521,0,0,1,6.32,6.545A5.957,5.957,0,0,1,89.135,30.932Z" fill="#fff"/>
    <path id="Path_151" data-name="Path 151" d="M55,13v2a1.054,1.054,0,0,1,1.053,1.053h2A3.056,3.056,0,0,0,55,13Z" transform="translate(36.44 7.039)" fill="#fff"/>
    <path id="Path_152" data-name="Path 152" d="M48,55.158a1.054,1.054,0,0,1,1.053,1.053h2A3.056,3.056,0,0,0,48,53.158Z" transform="translate(29.435 36.44)" fill="#fff"/>
    <path id="Path_153" data-name="Path 153" d="M5.188,40.088l-1.916.576c.2.661.423,1.32.665,1.958l1.869-.709C5.581,41.319,5.373,40.705,5.188,40.088Z" transform="translate(0 24.152)" fill="#fff"/>
    <path id="Path_154" data-name="Path 154" d="M2.039,30.448l2,.1c.032-.645.088-1.292.164-1.924l-1.986-.239C2.134,29.063,2.074,29.757,2.039,30.448Z" transform="translate(0 16.625)" fill="#fff"/>
    <path id="Path_155" data-name="Path 155" d="M6.552,43.694l-1.818.834c.284.619.6,1.241.93,1.849l1.754-.961C7.107,44.85,6.815,44.271,6.552,43.694Z" transform="translate(0 26.507)" fill="#fff"/>
    <path id="Path_156" data-name="Path 156" d="M15.344,56.955c.573.383,1.165.75,1.758,1.09L18.1,56.31c-.553-.317-1.1-.659-1.641-1.018Z" transform="translate(8.494 36.44)" fill="#fff"/>
    <path id="Path_157" data-name="Path 157" d="M6.166,21.181,4.32,20.408c-.266.635-.512,1.286-.732,1.935l1.895.643c.2-.606.434-1.213.683-1.805Z" transform="translate(0 11.682)" fill="#fff"/>
    <path id="Path_158" data-name="Path 158" d="M8.4,47.076,6.716,48.153c.368.575.763,1.147,1.174,1.7L9.5,48.665C9.113,48.146,8.745,47.612,8.4,47.076Z" transform="translate(0 28.706)" fill="#fff"/>
    <path id="Path_159" data-name="Path 159" d="M22.771,60.553c.653.211,1.322.4,1.988.567l.482-1.941c-.622-.154-1.246-.332-1.855-.529Z" transform="translate(13.157 36.44)" fill="#fff"/>
    <path id="Path_160" data-name="Path 160" d="M18.931,59.011c.614.3,1.251.58,1.893.837l.746-1.855c-.6-.241-1.192-.5-1.766-.782Z" transform="translate(10.756 36.44)" fill="#fff"/>
    <path id="Path_161" data-name="Path 161" d="M4,32.482l-2,.032c.011.687.047,1.382.105,2.065L4.1,34.408C4.047,33.771,4.014,33.123,4,32.482Z" transform="translate(0 19.183)" fill="#fff"/>
    <path id="Path_162" data-name="Path 162" d="M2.533,26.342l1.965.376c.121-.634.265-1.268.427-1.883l-1.934-.509c-.174.659-.328,1.338-.458,2.016Z" transform="translate(0 14.122)" fill="#fff"/>
    <path id="Path_163" data-name="Path 163" d="M4.332,36.325l-1.977.309c.107.683.237,1.365.388,2.03l1.951-.442c-.14-.621-.262-1.259-.362-1.9Z" transform="translate(0 21.692)" fill="#fff"/>
    <path id="Path_164" data-name="Path 164" d="M12.073,54.426c.511.454,1.046.9,1.591,1.32l1.225-1.582c-.51-.4-1.01-.81-1.487-1.233Z" transform="translate(6.419 36.44)" fill="#fff"/>
    <path id="Path_165" data-name="Path 165" d="M9.179,51.474c.444.521.914,1.034,1.4,1.525L12,51.6c-.45-.459-.889-.938-1.3-1.424Z" transform="translate(0 36.44)" fill="#fff"/>
    <path id="Path_166" data-name="Path 166" d="M54.837,48.2l1.629,1.161c.394-.553.777-1.134,1.141-1.727L55.9,46.593C55.563,47.147,55.2,47.689,54.837,48.2Z" transform="translate(36.44 28.395)" fill="#fff"/>
    <path id="Path_167" data-name="Path 167" d="M60,32c0,.615-.02,1.227-.059,1.832l2,.128Q62,32.988,62,32v-.1H60Z" transform="translate(36.44 18.804)" fill="#fff"/>
    <path id="Path_168" data-name="Path 168" d="M56.853,44.913l1.773.925c.315-.6.615-1.234.892-1.868l-1.834-.8c-.257.591-.538,1.177-.831,1.741Z" transform="translate(36.44 26.168)" fill="#fff"/>
    <path id="Path_169" data-name="Path 169" d="M58.393,41.375l1.885.67c.229-.644.439-1.308.624-1.973l-1.926-.537C58.8,40.155,58.606,40.774,58.393,41.375Z" transform="translate(36.44 23.792)" fill="#fff"/>
    <path id="Path_170" data-name="Path 170" d="M58.922,24.275c.175.613.332,1.243.467,1.874l1.955-.417c-.144-.675-.312-1.351-.5-2.006Z" transform="translate(36.44 13.75)" fill="#fff"/>
    <path id="Path_171" data-name="Path 171" d="M61.922,29.826c-.049-.69-.122-1.382-.218-2.057l-1.98.28c.089.629.157,1.275.2,1.919Z" transform="translate(36.44 16.246)" fill="#fff"/>
    <path id="Path_172" data-name="Path 172" d="M59.429,37.657l1.959.4c.138-.668.254-1.355.346-2.042l-1.982-.265C59.665,36.394,59.557,37.034,59.429,37.657Z" transform="translate(36.44 21.319)" fill="#fff"/>
    <path id="Path_173" data-name="Path 173" d="M22.947,8.947v2A1.054,1.054,0,0,1,24,12h2a3.056,3.056,0,0,0-3.053-3.053Z" transform="translate(13.404)" fill="#fff"/>
  </g>
</svg>
