<svg id="nasdaq" xmlns="http://www.w3.org/2000/svg" width="150" height="61.06" viewBox="0 0 150 61.06">
  <path id="Path_149" data-name="Path 149" d="M114.309,42.136c-5.293,0-8.582-4.276-8.582-11.169,0-7.153,3.035-11.6,7.922-11.6h.41a14.614,14.614,0,0,1,2.61.229V10.957h3.452v30.4a30.671,30.671,0,0,1-5.812.778m-.031-18.982c-3.344,0-4.97,2.517-4.97,7.693,0,4.647,1.962,7.536,5.114,7.536a19.155,19.155,0,0,0,2.246-.169V23.463a10.91,10.91,0,0,0-2.39-.31M67.024,41.438,57.7,18.742l0,22.7h-3.25V12.706H59L68.321,35.2l0-22.494H71.61V41.438Zm29.7.442a19.635,19.635,0,0,1-5.156-.768l-.211-.056V37.042l.308.092a16.79,16.79,0,0,0,4.688.948c1.2,0,3.992-.262,3.992-2.724,0-2.064-1.93-2.583-3.48-3l-.1-.028c-.29-.075-.563-.152-.793-.233-2.274-.823-4.7-2.06-4.7-6.31,0-4.145,2.352-6.52,6.454-6.52a20.654,20.654,0,0,1,4.547.533l.558.114v3.9l-.3-.075a17.764,17.764,0,0,0-4.289-.676c-1.629,0-3.562.425-3.562,2.446,0,1.678,1.582,2.158,3.414,2.714,2.562.773,5.738,1.743,5.738,6.619,0,4.473-2.59,7.039-7.113,7.039m33.085,0c-3.573,0-6.882-.879-6.882-7.241,0-6.925,5.117-6.925,8.176-6.925.3,0,1.742.093,2.183.12,0-3.884-.039-4.81-4.078-4.81a21.438,21.438,0,0,0-4.949.834l-.3.075V20.1l.2-.06a19.416,19.416,0,0,1,5.364-.767c3.914,0,7.23.55,7.23,7.322v14.77l-.238.038a41.4,41.4,0,0,1-6.707.48m1.207-10.739c-2.95,0-4.778.605-4.778,3.618,0,3.487,2.332,3.775,4.52,3.775.816,0,2.285-.146,2.734-.191V31.261c-.632-.038-2.277-.12-2.476-.12M81.375,41.88c-3.578,0-6.886-.879-6.886-7.241,0-6.925,5.117-6.925,8.175-6.925.305,0,1.746.093,2.188.12,0-3.884-.043-4.81-4.082-4.81a21.437,21.437,0,0,0-4.95.834l-.3.075V20.1l.207-.06a19.363,19.363,0,0,1,5.36-.767c3.913,0,7.23.55,7.23,7.322v14.77l-.239.038a41.373,41.373,0,0,1-6.7.48m1.2-10.739c-2.949,0-4.773.605-4.773,3.618,0,3.487,2.328,3.775,4.516,3.775.82,0,2.289-.146,2.738-.191V31.261c-.637-.038-2.281-.12-2.48-.12" transform="translate(-4.039 4.325)" fill="#231f20"/>
  <g id="Group_19" data-name="Group 19" transform="translate(135.559 23.676)">
    <path id="Path_150" data-name="Path 150" d="M11.492,32.841V23.416a12.091,12.091,0,0,1-2.64.262,8.367,8.367,0,0,1-4.063-1.106c-2.633-1.527-4.2-5.4-4.2-10.379,0-2.483.434-7.022,3.336-9.469A8.331,8.331,0,0,1,9.684.992c.925,0,2.175.1,3.382.2l1.961.142V30.657ZM9.426,4.784c-3.508,0-5.286,2.5-5.286,7.409,0,6.326,2.652,7.656,4.882,7.656a12.282,12.282,0,0,0,2.5-.24V4.921c-1.058-.1-1.547-.137-2.1-.137Z" transform="translate(-0.586 -0.992)" fill="#231f20"/>
  </g>
  <g id="Group_20" data-name="Group 20" transform="translate(24.96)">
    <path id="Path_151" data-name="Path 151" d="M14.012.016,2.594,43.768a2.472,2.472,0,0,1-1.836,1.99v.021h12.07a2.365,2.365,0,0,0,2.055-2.01L26.305.016Z" transform="translate(-0.758 -0.016)" fill="#0996c7"/>
  </g>
  <path id="Path_152" data-name="Path 152" d="M24.785,40.58a1.982,1.982,0,0,0,1.688-1.22,3.6,3.6,0,0,0,.273-.709L30.934,22.6l-2.45-9.377A2.3,2.3,0,0,0,26.8,11.466a1.9,1.9,0,0,0-1.916,1.2,3.784,3.784,0,0,0-.273.709l-4.188,16.05,2.461,9.414a2.176,2.176,0,0,0,1.9,1.743" transform="translate(0 4.519)" fill="#0996c7"/>
  <g id="Group_21" data-name="Group 21" transform="translate(0 15.297)">
    <path id="Path_153" data-name="Path 153" d="M26.668.984h-12.2A2.368,2.368,0,0,0,12.406,3L.988,46.747H13.281L24.7,3A2.4,2.4,0,0,1,26.668.99Z" transform="translate(-0.988 -0.984)" fill="#0996c7"/>
  </g>
</svg>
