<svg xmlns="http://www.w3.org/2000/svg" xmlns:xlink="http://www.w3.org/1999/xlink" width="150" height="61.06" viewBox="0 0 150 61.06">
  <defs>
    <clipPath id="clip-path">
      <path id="path2482" d="M80.919-978.739l-24.669,5.7V-1012.5H80.919v33.758" transform="translate(-56.25 1012.496)"/>
    </clipPath>
    <clipPath id="clip-path-2">
      <path id="path2494" d="M74.795-1023.154l23.169,40.32-35.59,20.451L39.205-1002.7" transform="translate(-39.205 1023.154)"/>
    </clipPath>
  </defs>
  <g id="g2412" transform="translate(-39.205 1023.154)">
    <g id="g2478" transform="translate(56.25 -1012.496)" clip-path="url(#clip-path)">
      <path id="path2484" d="M80.919-978.739l-24.669,5.7V-1012.5H80.919v33.758" transform="translate(-56.25 1012.496)" fill="#02428e"/>
      <path id="path2486" d="M66.43-989.918a32.11,32.11,0,0,1-43.824-11.839,32.115,32.115,0,0,1,11.839-43.827,32.116,32.116,0,0,1,43.825,11.839,32.115,32.115,0,0,1-11.84,43.827" transform="translate(-56.25 1012.496)" fill="#02428e"/>
    </g>
    <g id="g2490" transform="translate(39.205 -1023.154)" clip-path="url(#clip-path-2)">
      <g id="g2496" transform="translate(17.045 10.657)" clip-path="url(#clip-path)">
        <path id="path2502" d="M47.964-1022.065a4.891,4.891,0,0,1,6.676,1.8,4.891,4.891,0,0,1-1.8,6.676,4.891,4.891,0,0,1-6.676-1.8,4.891,4.891,0,0,1,1.8-6.676l-.044-.054a5.018,5.018,0,0,0-1.85,6.848,5.019,5.019,0,0,0,6.847,1.85,5.016,5.016,0,0,0,1.85-6.848,5.016,5.016,0,0,0-6.847-1.85" transform="translate(-56.25 1012.496)" fill="#008dd2" fill-rule="evenodd"/>
        <path id="path2504" d="M47.9-1022.174a5.016,5.016,0,0,1,6.847,1.85,5.016,5.016,0,0,1-1.85,6.847,5.017,5.017,0,0,1-6.847-1.85,5.016,5.016,0,0,1,1.85-6.848l-.044-.054a5.143,5.143,0,0,0-1.9,7.019,5.143,5.143,0,0,0,7.019,1.9,5.142,5.142,0,0,0,1.9-7.019,5.142,5.142,0,0,0-7.019-1.9" transform="translate(-56.25 1012.496)" fill="#008cd1" fill-rule="evenodd"/>
        <path id="path2506" d="M47.839-1022.208a5.142,5.142,0,0,1,7.019,1.9,5.142,5.142,0,0,1-1.9,7.019,5.142,5.142,0,0,1-7.019-1.9,5.142,5.142,0,0,1,1.9-7.019l-.044-.129a5.269,5.269,0,0,0-1.942,7.19,5.27,5.27,0,0,0,7.19,1.943,5.268,5.268,0,0,0,1.943-7.19,5.267,5.267,0,0,0-7.19-1.943" transform="translate(-56.25 1012.496)" fill="#008cd1" fill-rule="evenodd"/>
        <path id="path2508" d="M47.851-1022.316a5.268,5.268,0,0,1,7.19,1.943,5.268,5.268,0,0,1-1.943,7.19,5.269,5.269,0,0,1-7.19-1.943,5.268,5.268,0,0,1,1.942-7.19l-.119-.129a5.394,5.394,0,0,0-1.989,7.361,5.4,5.4,0,0,0,7.361,1.989,5.393,5.393,0,0,0,1.989-7.361,5.392,5.392,0,0,0-7.361-1.989" transform="translate(-56.25 1012.496)" fill="#008cd1" fill-rule="evenodd"/>
        <path id="path2510" d="M47.789-1022.425a5.394,5.394,0,0,1,7.361,1.989,5.4,5.4,0,0,1-1.989,7.361,5.4,5.4,0,0,1-7.361-1.989,5.393,5.393,0,0,1,1.989-7.361l-.119-.129a5.521,5.521,0,0,0-2.035,7.532,5.521,5.521,0,0,0,7.533,2.035,5.519,5.519,0,0,0,2.035-7.533,5.518,5.518,0,0,0-7.532-2.035" transform="translate(-56.25 1012.496)" fill="#008cd1" fill-rule="evenodd"/>
        <path id="path2512" d="M47.651-1022.534a5.52,5.52,0,0,1,7.533,2.035,5.519,5.519,0,0,1-2.035,7.532A5.52,5.52,0,0,1,45.616-1015a5.519,5.519,0,0,1,2.035-7.532l-.044-.129a5.646,5.646,0,0,0-2.081,7.7,5.646,5.646,0,0,0,7.7,2.081,5.644,5.644,0,0,0,2.081-7.7,5.643,5.643,0,0,0-7.7-2.081" transform="translate(-56.25 1012.496)" fill="#008cd1" fill-rule="evenodd"/>
        <path id="path2514" d="M47.589-1022.718a5.645,5.645,0,0,1,7.7,2.081,5.646,5.646,0,0,1-2.081,7.7,5.646,5.646,0,0,1-7.7-2.081,5.645,5.645,0,0,1,2.081-7.7l-.044-.054a5.771,5.771,0,0,0-2.127,7.875,5.771,5.771,0,0,0,7.875,2.127,5.77,5.77,0,0,0,2.127-7.875,5.77,5.77,0,0,0-7.875-2.127" transform="translate(-56.25 1012.496)" fill="#008cd1" fill-rule="evenodd"/>
        <path id="path2516" d="M47.526-1022.826A5.77,5.77,0,0,1,55.4-1020.7a5.771,5.771,0,0,1-2.127,7.875,5.771,5.771,0,0,1-7.875-2.128,5.771,5.771,0,0,1,2.127-7.875l-.044-.054a5.9,5.9,0,0,0-2.174,8.046,5.9,5.9,0,0,0,8.046,2.174,5.9,5.9,0,0,0,2.174-8.046,5.9,5.9,0,0,0-8.046-2.174" transform="translate(-56.25 1012.496)" fill="#008cd1" fill-rule="evenodd"/>
        <path id="path2518" d="M47.464-1022.86a5.9,5.9,0,0,1,8.046,2.174,5.9,5.9,0,0,1-2.174,8.046,5.9,5.9,0,0,1-8.046-2.174,5.9,5.9,0,0,1,2.174-8.046l-.044-.129a6.02,6.02,0,0,0-2.219,8.218,6.019,6.019,0,0,0,8.216,2.219,6.02,6.02,0,0,0,2.22-8.216,6.021,6.021,0,0,0-8.217-2.22" transform="translate(-56.25 1012.496)" fill="#008cd1" fill-rule="evenodd"/>
        <path id="path2520" d="M47.476-1022.969a6.022,6.022,0,0,1,8.217,2.22,6.022,6.022,0,0,1-2.22,8.218,6.022,6.022,0,0,1-8.217-2.22,6.022,6.022,0,0,1,2.22-8.217l-.119-.129a6.147,6.147,0,0,0-2.265,8.389,6.145,6.145,0,0,0,8.387,2.265,6.144,6.144,0,0,0,2.266-8.387,6.146,6.146,0,0,0-8.389-2.266" transform="translate(-56.25 1012.496)" fill="#008cd1" fill-rule="evenodd"/>
        <path id="path2522" d="M47.414-1023.077a6.147,6.147,0,0,1,8.389,2.266,6.147,6.147,0,0,1-2.266,8.389,6.147,6.147,0,0,1-8.389-2.266,6.147,6.147,0,0,1,2.266-8.389l-.119-.129a6.272,6.272,0,0,0-2.311,8.56,6.27,6.27,0,0,0,8.559,2.311,6.271,6.271,0,0,0,2.312-8.559,6.272,6.272,0,0,0-8.56-2.312" transform="translate(-56.25 1012.496)" fill="#008cd1" fill-rule="evenodd"/>
        <path id="path2524" d="M47.276-1023.186a6.273,6.273,0,0,1,8.56,2.313,6.273,6.273,0,0,1-2.312,8.56,6.273,6.273,0,0,1-8.56-2.312,6.273,6.273,0,0,1,2.312-8.56l-.044-.129a6.4,6.4,0,0,0-2.357,8.731,6.4,6.4,0,0,0,8.73,2.357,6.4,6.4,0,0,0,2.359-8.73,6.4,6.4,0,0,0-8.731-2.359" transform="translate(-56.25 1012.496)" fill="#008ad0" fill-rule="evenodd"/>
        <path id="path2526" d="M47.214-1023.37a6.4,6.4,0,0,1,8.731,2.359,6.4,6.4,0,0,1-2.359,8.731,6.4,6.4,0,0,1-8.731-2.359,6.4,6.4,0,0,1,2.359-8.731l-.044-.054a6.523,6.523,0,0,0-2.4,8.9,6.522,6.522,0,0,0,8.9,2.4,6.521,6.521,0,0,0,2.405-8.9,6.522,6.522,0,0,0-8.9-2.405" transform="translate(-56.25 1012.496)" fill="#008ad0" fill-rule="evenodd"/>
        <path id="path2528" d="M47.151-1023.479a6.524,6.524,0,0,1,8.9,2.4,6.524,6.524,0,0,1-2.4,8.9,6.524,6.524,0,0,1-8.9-2.405,6.524,6.524,0,0,1,2.405-8.9l-.044-.054a6.647,6.647,0,0,0-2.45,9.072,6.646,6.646,0,0,0,9.073,2.451,6.647,6.647,0,0,0,2.451-9.073,6.648,6.648,0,0,0-9.074-2.451" transform="translate(-56.25 1012.496)" fill="#008ad0" fill-rule="evenodd"/>
        <path id="path2530" d="M47.089-1023.513a6.65,6.65,0,0,1,9.074,2.451,6.649,6.649,0,0,1-2.451,9.074,6.649,6.649,0,0,1-9.074-2.451,6.649,6.649,0,0,1,2.451-9.074l-.044-.129a6.773,6.773,0,0,0-2.5,9.244,6.772,6.772,0,0,0,9.244,2.5,6.772,6.772,0,0,0,2.5-9.244,6.774,6.774,0,0,0-9.245-2.5" transform="translate(-56.25 1012.496)" fill="#008ad0" fill-rule="evenodd"/>
        <path id="path2532" d="M47.026-1023.621a6.776,6.776,0,0,1,9.245,2.5,6.776,6.776,0,0,1-2.5,9.245,6.776,6.776,0,0,1-9.245-2.5,6.776,6.776,0,0,1,2.5-9.245l-.042-.129a6.9,6.9,0,0,0-2.544,9.415,6.9,6.9,0,0,0,9.415,2.544,6.9,6.9,0,0,0,2.544-9.415,6.9,6.9,0,0,0-9.415-2.544" transform="translate(-56.25 1012.496)" fill="#008acf" fill-rule="evenodd"/>
        <path id="path2534" d="M47.039-1023.73a6.9,6.9,0,0,1,9.416,2.544,6.9,6.9,0,0,1-2.544,9.416,6.9,6.9,0,0,1-9.416-2.544,6.9,6.9,0,0,1,2.544-9.416l-.118-.129a7.023,7.023,0,0,0-2.59,9.586,7.024,7.024,0,0,0,9.586,2.59,7.023,7.023,0,0,0,2.59-9.586,7.023,7.023,0,0,0-9.586-2.59" transform="translate(-56.25 1012.496)" fill="#008acf" fill-rule="evenodd"/>
        <path id="path2536" d="M46.9-1023.839a7.026,7.026,0,0,1,9.588,2.59,7.026,7.026,0,0,1-2.59,9.588,7.027,7.027,0,0,1-9.587-2.59,7.026,7.026,0,0,1,2.59-9.588l-.042-.129a7.149,7.149,0,0,0-2.636,9.758,7.148,7.148,0,0,0,9.757,2.636,7.149,7.149,0,0,0,2.636-9.758,7.15,7.15,0,0,0-9.757-2.636" transform="translate(-56.25 1012.496)" fill="#008acf" fill-rule="evenodd"/>
        <path id="path2538" d="M46.839-1023.948a7.152,7.152,0,0,1,9.759,2.636,7.152,7.152,0,0,1-2.636,9.759,7.152,7.152,0,0,1-9.759-2.636,7.152,7.152,0,0,1,2.636-9.759l-.043-.129a7.275,7.275,0,0,0-2.682,9.929,7.275,7.275,0,0,0,9.929,2.682,7.274,7.274,0,0,0,2.682-9.929,7.275,7.275,0,0,0-9.929-2.683" transform="translate(-56.25 1012.496)" fill="#008acf" fill-rule="evenodd"/>
        <path id="path2540" d="M46.776-1024.131a7.277,7.277,0,0,1,9.93,2.682,7.275,7.275,0,0,1-2.683,9.929,7.276,7.276,0,0,1-9.93-2.681,7.277,7.277,0,0,1,2.683-9.93l-.043-.054a7.4,7.4,0,0,0-2.729,10.1,7.4,7.4,0,0,0,10.1,2.729,7.4,7.4,0,0,0,2.729-10.1,7.4,7.4,0,0,0-10.1-2.729" transform="translate(-56.25 1012.496)" fill="#0089cf" fill-rule="evenodd"/>
        <path id="path2542" d="M46.714-1024.165a7.4,7.4,0,0,1,10.1,2.729,7.4,7.4,0,0,1-2.729,10.1,7.4,7.4,0,0,1-10.1-2.729,7.4,7.4,0,0,1,2.729-10.1l-.042-.129a7.526,7.526,0,0,0-2.775,10.271,7.526,7.526,0,0,0,10.271,2.775,7.526,7.526,0,0,0,2.775-10.271,7.526,7.526,0,0,0-10.271-2.775" transform="translate(-56.25 1012.496)" fill="#0089cf" fill-rule="evenodd"/>
        <path id="path2544" d="M46.651-1024.274a7.528,7.528,0,0,1,10.273,2.775,7.527,7.527,0,0,1-2.775,10.271A7.527,7.527,0,0,1,43.876-1014a7.529,7.529,0,0,1,2.775-10.273l-.042-.129a7.651,7.651,0,0,0-2.821,10.442,7.651,7.651,0,0,0,10.443,2.821,7.651,7.651,0,0,0,2.821-10.443,7.651,7.651,0,0,0-10.442-2.821" transform="translate(-56.25 1012.496)" fill="#0089cf" fill-rule="evenodd"/>
        <path id="path2546" d="M46.664-1024.381a7.651,7.651,0,0,1,10.443,2.82,7.651,7.651,0,0,1-2.82,10.443,7.653,7.653,0,0,1-10.444-2.82,7.653,7.653,0,0,1,2.821-10.443l-.118-.13a7.776,7.776,0,0,0-2.868,10.614,7.776,7.776,0,0,0,10.614,2.867,7.777,7.777,0,0,0,2.868-10.614,7.777,7.777,0,0,0-10.614-2.867" transform="translate(-56.25 1012.496)" fill="#0089cf" fill-rule="evenodd"/>
        <path id="path2548" d="M46.526-1024.491a7.778,7.778,0,0,1,10.614,2.867,7.776,7.776,0,0,1-2.866,10.614,7.776,7.776,0,0,1-10.614-2.866,7.778,7.778,0,0,1,2.866-10.615l-.043-.129a7.9,7.9,0,0,0-2.914,10.785,7.9,7.9,0,0,0,10.785,2.914,7.9,7.9,0,0,0,2.914-10.785,7.9,7.9,0,0,0-10.785-2.914" transform="translate(-56.25 1012.496)" fill="#0089ce" fill-rule="evenodd"/>
        <path id="path2550" d="M46.464-1024.6a7.9,7.9,0,0,1,10.785,2.912,7.9,7.9,0,0,1-2.912,10.785,7.9,7.9,0,0,1-10.785-2.913,7.9,7.9,0,0,1,2.913-10.785l-.043-.13a8.027,8.027,0,0,0-2.96,10.956,8.027,8.027,0,0,0,10.956,2.96,8.028,8.028,0,0,0,2.96-10.956,8.029,8.029,0,0,0-10.956-2.96" transform="translate(-56.25 1012.496)" fill="#0089ce" fill-rule="evenodd"/>
        <path id="path2552" d="M46.4-1024.782a8.027,8.027,0,0,1,10.956,2.959,8.028,8.028,0,0,1-2.959,10.956,8.028,8.028,0,0,1-10.956-2.959,8.028,8.028,0,0,1,2.959-10.956l-.042-.055a8.154,8.154,0,0,0-3.006,11.128A8.153,8.153,0,0,0,54.48-1010.7a8.153,8.153,0,0,0,3.006-11.128,8.154,8.154,0,0,0-11.127-3.006" transform="translate(-56.25 1012.496)" fill="#0089cd" fill-rule="evenodd"/>
        <path id="path2554" d="M46.339-1024.816a8.153,8.153,0,0,1,11.127,3.005,8.153,8.153,0,0,1-3,11.128,8.153,8.153,0,0,1-11.128-3.005,8.153,8.153,0,0,1,3.005-11.128l-.042-.13a8.279,8.279,0,0,0-3.052,11.3,8.278,8.278,0,0,0,11.3,3.052,8.279,8.279,0,0,0,3.053-11.3,8.28,8.28,0,0,0-11.3-3.052" transform="translate(-56.25 1012.496)" fill="#0088cd" fill-rule="evenodd"/>
        <path id="path2556" d="M46.276-1024.925a8.279,8.279,0,0,1,11.3,3.051,8.279,8.279,0,0,1-3.051,11.3,8.279,8.279,0,0,1-11.3-3.051,8.279,8.279,0,0,1,3.051-11.3l-.042-.13a8.4,8.4,0,0,0-3.1,11.47,8.4,8.4,0,0,0,11.47,3.1,8.4,8.4,0,0,0,3.1-11.47,8.406,8.406,0,0,0-11.47-3.1" transform="translate(-56.25 1012.496)" fill="#0088cd" fill-rule="evenodd"/>
        <path id="path2558" d="M46.289-1025.034a8.4,8.4,0,0,1,11.47,3.1,8.4,8.4,0,0,1-3.1,11.47,8.4,8.4,0,0,1-11.47-3.1,8.4,8.4,0,0,1,3.1-11.469l-.118-.13a8.529,8.529,0,0,0-3.145,11.641,8.53,8.53,0,0,0,11.641,3.145,8.53,8.53,0,0,0,3.145-11.641,8.53,8.53,0,0,0-11.641-3.145" transform="translate(-56.25 1012.496)" fill="#0088cd" fill-rule="evenodd"/>
        <path id="path2560" d="M46.151-1025.143A8.53,8.53,0,0,1,57.793-1022a8.53,8.53,0,0,1-3.144,11.641,8.529,8.529,0,0,1-11.641-3.145,8.529,8.529,0,0,1,3.144-11.64l-.043-.13a8.655,8.655,0,0,0-3.191,11.812,8.655,8.655,0,0,0,11.813,3.191,8.656,8.656,0,0,0,3.191-11.812,8.656,8.656,0,0,0-11.813-3.191" transform="translate(-56.25 1012.496)" fill="#0088cd" fill-rule="evenodd"/>
        <path id="path2562" d="M46.089-1025.251a8.655,8.655,0,0,1,11.813,3.19,8.654,8.654,0,0,1-3.191,11.813A8.653,8.653,0,0,1,42.9-1013.44a8.654,8.654,0,0,1,3.19-11.811l-.042-.13a8.781,8.781,0,0,0-3.237,11.984,8.781,8.781,0,0,0,11.984,3.238,8.781,8.781,0,0,0,3.237-11.984,8.782,8.782,0,0,0-11.984-3.237" transform="translate(-56.25 1012.496)" fill="#08c" fill-rule="evenodd"/>
        <path id="path2564" d="M46.027-1025.435A8.78,8.78,0,0,1,58.01-1022.2a8.781,8.781,0,0,1-3.238,11.984,8.78,8.78,0,0,1-11.983-3.238,8.78,8.78,0,0,1,3.237-11.983l-.044-.055a8.906,8.906,0,0,0-3.284,12.155,8.906,8.906,0,0,0,12.155,3.284,8.908,8.908,0,0,0,3.284-12.155,8.908,8.908,0,0,0-12.155-3.284" transform="translate(-56.25 1012.496)" fill="#08c" fill-rule="evenodd"/>
        <path id="path2566" d="M45.965-1025.469a8.9,8.9,0,0,1,12.154,3.284,8.9,8.9,0,0,1-3.284,12.154,8.9,8.9,0,0,1-12.154-3.284,8.9,8.9,0,0,1,3.284-12.154l-.044-.13a9.032,9.032,0,0,0-3.33,12.326,9.032,9.032,0,0,0,12.326,3.33,9.032,9.032,0,0,0,3.33-12.326,9.033,9.033,0,0,0-12.326-3.33" transform="translate(-56.25 1012.496)" fill="#08c" fill-rule="evenodd"/>
        <path id="path2568" d="M45.9-1025.578a9.03,9.03,0,0,1,12.325,3.33,9.03,9.03,0,0,1-3.33,12.325,9.031,9.031,0,0,1-12.325-3.33,9.03,9.03,0,0,1,3.33-12.325l-.044-.129a9.155,9.155,0,0,0-3.376,12.5,9.157,9.157,0,0,0,12.5,3.376,9.159,9.159,0,0,0,3.376-12.5,9.158,9.158,0,0,0-12.5-3.375" transform="translate(-56.25 1012.496)" fill="#0087cc" fill-rule="evenodd"/>
        <path id="path2570" d="M45.915-1025.686a9.156,9.156,0,0,1,12.5,3.376,9.156,9.156,0,0,1-3.376,12.5,9.156,9.156,0,0,1-12.5-3.376,9.156,9.156,0,0,1,3.376-12.5l-.119-.129a9.281,9.281,0,0,0-3.423,12.667,9.283,9.283,0,0,0,12.669,3.422,9.283,9.283,0,0,0,3.421-12.669,9.281,9.281,0,0,0-12.667-3.421" transform="translate(-56.25 1012.496)" fill="#0087cc" fill-rule="evenodd"/>
        <path id="path2572" d="M45.778-1025.795a9.281,9.281,0,0,1,12.667,3.422,9.281,9.281,0,0,1-3.422,12.668,9.281,9.281,0,0,1-12.668-3.423,9.281,9.281,0,0,1,3.423-12.667l-.044-.129a9.407,9.407,0,0,0-3.469,12.839,9.408,9.408,0,0,0,12.84,3.469,9.408,9.408,0,0,0,3.468-12.84,9.407,9.407,0,0,0-12.839-3.468" transform="translate(-56.25 1012.496)" fill="#0087cc" fill-rule="evenodd"/>
        <path id="path2574" d="M45.715-1025.9a9.407,9.407,0,0,1,12.839,3.469,9.407,9.407,0,0,1-3.469,12.839,9.407,9.407,0,0,1-12.839-3.469,9.407,9.407,0,0,1,3.469-12.839l-.044-.129a9.532,9.532,0,0,0-3.515,13.01,9.535,9.535,0,0,0,13.011,3.515,9.534,9.534,0,0,0,3.514-13.011,9.532,9.532,0,0,0-13.01-3.514" transform="translate(-56.25 1012.496)" fill="#0087cc" fill-rule="evenodd"/>
        <path id="path2576" d="M45.653-1026.087a9.532,9.532,0,0,1,13.01,3.515,9.532,9.532,0,0,1-3.515,13.01,9.532,9.532,0,0,1-13.01-3.515,9.532,9.532,0,0,1,3.515-13.01l-.044-.054a9.658,9.658,0,0,0-3.561,13.181A9.659,9.659,0,0,0,55.23-1009.4a9.659,9.659,0,0,0,3.56-13.182,9.658,9.658,0,0,0-13.181-3.56" transform="translate(-56.25 1012.496)" fill="#0086cb" fill-rule="evenodd"/>
        <path id="path2578" d="M45.59-1026.2a9.658,9.658,0,0,1,13.181,3.561,9.658,9.658,0,0,1-3.561,13.181,9.658,9.658,0,0,1-13.181-3.561A9.658,9.658,0,0,1,45.59-1026.2l-.044-.054a9.783,9.783,0,0,0-3.608,13.352,9.785,9.785,0,0,0,13.354,3.607,9.785,9.785,0,0,0,3.606-13.354,9.784,9.784,0,0,0-13.353-3.606" transform="translate(-56.25 1012.496)" fill="#0086cb" fill-rule="evenodd"/>
        <path id="path2580" d="M45.528-1026.23a9.783,9.783,0,0,1,13.353,3.607,9.783,9.783,0,0,1-3.608,13.353,9.783,9.783,0,0,1-13.353-3.607,9.783,9.783,0,0,1,3.608-13.352l-.044-.129a9.909,9.909,0,0,0-3.654,13.524,9.911,9.911,0,0,0,13.525,3.654,9.91,9.91,0,0,0,3.653-13.525,9.909,9.909,0,0,0-13.524-3.652" transform="translate(-56.25 1012.496)" fill="#0085ca" fill-rule="evenodd"/>
        <path id="path2582" d="M45.54-1026.339a9.909,9.909,0,0,1,13.524,3.654,9.909,9.909,0,0,1-3.654,13.524,9.909,9.909,0,0,1-13.524-3.654,9.908,9.908,0,0,1,3.654-13.524l-.119-.129a10.034,10.034,0,0,0-3.7,13.695,10.036,10.036,0,0,0,13.7,3.7,10.037,10.037,0,0,0,3.7-13.7,10.035,10.035,0,0,0-13.695-3.7" transform="translate(-56.25 1012.496)" fill="#0085ca" fill-rule="evenodd"/>
        <path id="path2584" d="M45.478-1026.447a10.034,10.034,0,0,1,13.695,3.7,10.034,10.034,0,0,1-3.7,13.7,10.034,10.034,0,0,1-13.695-3.7,10.034,10.034,0,0,1,3.7-13.695l-.119-.129a10.16,10.16,0,0,0-3.746,13.866,10.162,10.162,0,0,0,13.867,3.746,10.162,10.162,0,0,0,3.745-13.868,10.16,10.16,0,0,0-13.866-3.745" transform="translate(-56.25 1012.496)" fill="#0085ca" fill-rule="evenodd"/>
        <path id="path2586" d="M45.34-1026.556a10.16,10.16,0,0,1,13.866,3.746,10.16,10.16,0,0,1-3.746,13.866,10.159,10.159,0,0,1-13.866-3.746,10.16,10.16,0,0,1,3.746-13.866l-.044-.129a10.285,10.285,0,0,0-3.792,14.037,10.287,10.287,0,0,0,14.039,3.792,10.286,10.286,0,0,0,3.791-14.038,10.286,10.286,0,0,0-14.037-3.792" transform="translate(-56.25 1012.496)" fill="#0085ca" fill-rule="evenodd"/>
        <path id="path2588" d="M45.278-1026.74a10.286,10.286,0,0,1,14.037,3.792,10.286,10.286,0,0,1-3.792,14.037,10.286,10.286,0,0,1-14.037-3.793,10.285,10.285,0,0,1,3.792-14.037l-.044-.054a10.412,10.412,0,0,0-3.839,14.209,10.413,10.413,0,0,0,14.21,3.839,10.413,10.413,0,0,0,3.837-14.21,10.411,10.411,0,0,0-14.209-3.837" transform="translate(-56.25 1012.496)" fill="#0085ca" fill-rule="evenodd"/>
        <path id="path2590" d="M45.215-1026.849a10.411,10.411,0,0,1,14.209,3.839,10.411,10.411,0,0,1-3.839,14.209,10.411,10.411,0,0,1-14.209-3.839,10.411,10.411,0,0,1,3.839-14.209l-.044-.054a10.536,10.536,0,0,0-3.885,14.38,10.537,10.537,0,0,0,14.38,3.885,10.536,10.536,0,0,0,3.885-14.38,10.535,10.535,0,0,0-14.38-3.885" transform="translate(-56.25 1012.496)" fill="#0085ca" fill-rule="evenodd"/>
        <path id="path2592" d="M45.153-1026.882A10.537,10.537,0,0,1,59.533-1023a10.537,10.537,0,0,1-3.885,14.38,10.537,10.537,0,0,1-14.38-3.885,10.536,10.536,0,0,1,3.885-14.38l-.044-.129a10.662,10.662,0,0,0-3.931,14.551,10.662,10.662,0,0,0,14.551,3.931,10.662,10.662,0,0,0,3.931-14.551,10.662,10.662,0,0,0-14.551-3.931" transform="translate(-56.25 1012.496)" fill="#0085ca" fill-rule="evenodd"/>
        <path id="path2594" d="M45.165-1026.991a10.662,10.662,0,0,1,14.551,3.931,10.662,10.662,0,0,1-3.931,14.551,10.662,10.662,0,0,1-14.551-3.931,10.662,10.662,0,0,1,3.931-14.551l-.119-.129a10.788,10.788,0,0,0-3.978,14.722,10.788,10.788,0,0,0,14.722,3.977,10.787,10.787,0,0,0,3.978-14.722,10.787,10.787,0,0,0-14.722-3.977" transform="translate(-56.25 1012.496)" fill="#0085ca" fill-rule="evenodd"/>
        <path id="path2596" d="M45.1-1027.1a10.788,10.788,0,0,1,14.722,3.977,10.788,10.788,0,0,1-3.977,14.723,10.788,10.788,0,0,1-14.723-3.977A10.788,10.788,0,0,1,45.1-1027.1l-.119-.129a10.913,10.913,0,0,0-4.024,14.894,10.914,10.914,0,0,0,14.894,4.024,10.913,10.913,0,0,0,4.024-14.894,10.913,10.913,0,0,0-14.894-4.024" transform="translate(-56.25 1012.496)" fill="#0084c9" fill-rule="evenodd"/>
        <path id="path2598" d="M44.965-1027.209a10.913,10.913,0,0,1,14.894,4.024,10.913,10.913,0,0,1-4.024,14.894,10.913,10.913,0,0,1-14.894-4.024,10.913,10.913,0,0,1,4.024-14.894l-.044-.129a11.039,11.039,0,0,0-4.07,15.065,11.038,11.038,0,0,0,15.065,4.069,11.037,11.037,0,0,0,4.07-15.064,11.038,11.038,0,0,0-15.065-4.07" transform="translate(-56.25 1012.496)" fill="#0084c8" fill-rule="evenodd"/>
        <path id="path2600" d="M44.9-1027.392a11.038,11.038,0,0,1,15.065,4.07,11.038,11.038,0,0,1-4.07,15.065,11.039,11.039,0,0,1-15.065-4.07,11.038,11.038,0,0,1,4.07-15.065l-.044-.054a11.162,11.162,0,0,0-4.115,15.236,11.161,11.161,0,0,0,15.235,4.115A11.163,11.163,0,0,0,60.1-1023.33a11.164,11.164,0,0,0-15.236-4.116" transform="translate(-56.25 1012.496)" fill="#0084c8" fill-rule="evenodd"/>
        <path id="path2602" d="M44.84-1027.5a11.165,11.165,0,0,1,15.236,4.116,11.165,11.165,0,0,1-4.116,15.236,11.165,11.165,0,0,1-15.236-4.116A11.164,11.164,0,0,1,44.84-1027.5l-.044-.054a11.289,11.289,0,0,0-4.161,15.408,11.287,11.287,0,0,0,15.406,4.161,11.288,11.288,0,0,0,4.162-15.406,11.29,11.29,0,0,0-15.407-4.163" transform="translate(-56.25 1012.496)" fill="#0083c8" fill-rule="evenodd"/>
        <path id="path2604" d="M44.777-1027.535a11.29,11.29,0,0,1,15.408,4.163,11.289,11.289,0,0,1-4.162,15.407,11.289,11.289,0,0,1-15.407-4.163,11.289,11.289,0,0,1,4.162-15.407l-.044-.129a11.414,11.414,0,0,0-4.207,15.579,11.413,11.413,0,0,0,15.577,4.208,11.413,11.413,0,0,0,4.209-15.578,11.414,11.414,0,0,0-15.579-4.209" transform="translate(-56.25 1012.496)" fill="#0083c8" fill-rule="evenodd"/>
        <path id="path2606" d="M44.79-1027.644a11.416,11.416,0,0,1,15.579,4.209,11.416,11.416,0,0,1-4.209,15.579,11.416,11.416,0,0,1-15.579-4.209,11.416,11.416,0,0,1,4.209-15.579l-.119-.129a11.54,11.54,0,0,0-4.254,15.75,11.539,11.539,0,0,0,15.749,4.254,11.539,11.539,0,0,0,4.255-15.749,11.541,11.541,0,0,0-15.75-4.255" transform="translate(-56.25 1012.496)" fill="#0083c8" fill-rule="evenodd"/>
        <path id="path2608" d="M44.728-1027.753a11.541,11.541,0,0,1,15.75,4.255,11.541,11.541,0,0,1-4.255,15.75A11.541,11.541,0,0,1,40.472-1012a11.541,11.541,0,0,1,4.255-15.75l-.119-.129a11.665,11.665,0,0,0-4.3,15.921,11.664,11.664,0,0,0,15.92,4.3,11.664,11.664,0,0,0,4.3-15.92,11.666,11.666,0,0,0-15.921-4.3" transform="translate(-56.25 1012.496)" fill="#0083c8" fill-rule="evenodd"/>
        <path id="path2610" d="M44.59-1027.861a11.667,11.667,0,0,1,15.921,4.3,11.667,11.667,0,0,1-4.3,15.921,11.667,11.667,0,0,1-15.921-4.3,11.667,11.667,0,0,1,4.3-15.921l-.044-.129A11.79,11.79,0,0,0,40.2-1011.9a11.789,11.789,0,0,0,16.091,4.346,11.79,11.79,0,0,0,4.347-16.091,11.792,11.792,0,0,0-16.093-4.347" transform="translate(-56.25 1012.496)" fill="#0083c8" fill-rule="evenodd"/>
        <path id="path2612" d="M44.528-1028.045A11.792,11.792,0,0,1,60.62-1023.7a11.792,11.792,0,0,1-4.347,16.093,11.792,11.792,0,0,1-16.093-4.348,11.792,11.792,0,0,1,4.348-16.092l-.044-.054a11.917,11.917,0,0,0-4.393,16.264,11.915,11.915,0,0,0,16.263,4.393,11.916,11.916,0,0,0,4.394-16.263,11.917,11.917,0,0,0-16.264-4.394" transform="translate(-56.25 1012.496)" fill="#0082c7" fill-rule="evenodd"/>
        <path id="path2614" d="M44.465-1028.154a11.917,11.917,0,0,1,16.264,4.394,11.917,11.917,0,0,1-4.394,16.264,11.918,11.918,0,0,1-16.264-4.394,11.917,11.917,0,0,1,4.394-16.264l-.044-.054a12.042,12.042,0,0,0-4.439,16.435,12.04,12.04,0,0,0,16.434,4.439,12.042,12.042,0,0,0,4.44-16.434,12.043,12.043,0,0,0-16.435-4.44" transform="translate(-56.25 1012.496)" fill="#0082c7" fill-rule="evenodd"/>
        <path id="path2616" d="M44.4-1028.187a12.043,12.043,0,0,1,16.435,4.44,12.043,12.043,0,0,1-4.44,16.435,12.043,12.043,0,0,1-16.435-4.44,12.043,12.043,0,0,1,4.44-16.435l-.044-.129a12.168,12.168,0,0,0-4.485,16.606,12.166,12.166,0,0,0,16.6,4.485,12.167,12.167,0,0,0,4.486-16.6,12.168,12.168,0,0,0-16.606-4.486" transform="translate(-56.25 1012.496)" fill="#0081c6" fill-rule="evenodd"/>
        <path id="path2618" d="M44.415-1028.3a12.168,12.168,0,0,1,16.606,4.486,12.168,12.168,0,0,1-4.486,16.606,12.168,12.168,0,0,1-16.606-4.486,12.168,12.168,0,0,1,4.486-16.606l-.119-.129a12.293,12.293,0,0,0-4.531,16.778,12.291,12.291,0,0,0,16.776,4.531,12.292,12.292,0,0,0,4.533-16.776,12.3,12.3,0,0,0-16.778-4.533" transform="translate(-56.25 1012.496)" fill="#0081c6" fill-rule="evenodd"/>
        <path id="path2620" d="M44.352-1028.405a12.3,12.3,0,0,1,16.778,4.532A12.293,12.293,0,0,1,56.6-1007.1a12.293,12.293,0,0,1-16.778-4.531,12.294,12.294,0,0,1,4.532-16.778l-.119-.129a12.419,12.419,0,0,0-4.577,16.949,12.419,12.419,0,0,0,16.948,4.578,12.418,12.418,0,0,0,4.579-16.948,12.419,12.419,0,0,0-16.949-4.579" transform="translate(-56.25 1012.496)" fill="#0081c6" fill-rule="evenodd"/>
        <path id="path2622" d="M44.215-1028.514a12.42,12.42,0,0,1,16.949,4.579,12.42,12.42,0,0,1-4.579,16.949,12.42,12.42,0,0,1-16.949-4.579,12.42,12.42,0,0,1,4.579-16.949l-.044-.129a12.543,12.543,0,0,0-4.624,17.119,12.542,12.542,0,0,0,17.119,4.625,12.543,12.543,0,0,0,4.625-17.119,12.544,12.544,0,0,0-17.12-4.625" transform="translate(-56.25 1012.496)" fill="#0081c6" fill-rule="evenodd"/>
        <path id="path2624" d="M44.152-1028.7a12.546,12.546,0,0,1,17.12,4.625,12.544,12.544,0,0,1-4.625,17.119,12.544,12.544,0,0,1-17.12-4.624,12.546,12.546,0,0,1,4.625-17.12l-.042-.054a12.667,12.667,0,0,0-4.671,17.29,12.667,12.667,0,0,0,17.29,4.671,12.669,12.669,0,0,0,4.671-17.29,12.669,12.669,0,0,0-17.29-4.671" transform="translate(-56.25 1012.496)" fill="#0081c6" fill-rule="evenodd"/>
        <path id="path2626" d="M44.09-1028.806a12.671,12.671,0,0,1,17.291,4.671,12.669,12.669,0,0,1-4.671,17.29,12.669,12.669,0,0,1-17.291-4.67,12.671,12.671,0,0,1,4.671-17.291l-.042-.054A12.793,12.793,0,0,0,39.33-1011.4a12.793,12.793,0,0,0,17.461,4.718,12.794,12.794,0,0,0,4.718-17.461,12.794,12.794,0,0,0-17.461-4.717" transform="translate(-56.25 1012.496)" fill="#0081c5" fill-rule="evenodd"/>
        <path id="path2628" d="M44.028-1028.84a12.8,12.8,0,0,1,17.461,4.718,12.794,12.794,0,0,1-4.716,17.461,12.794,12.794,0,0,1-17.461-4.716,12.8,12.8,0,0,1,4.716-17.463l-.042-.129a12.918,12.918,0,0,0-4.764,17.633,12.919,12.919,0,0,0,17.632,4.764,12.92,12.92,0,0,0,4.764-17.633,12.921,12.921,0,0,0-17.632-4.764" transform="translate(-56.25 1012.496)" fill="#0081c5" fill-rule="evenodd"/>
        <path id="path2630" d="M44.04-1028.948a12.919,12.919,0,0,1,17.633,4.762,12.919,12.919,0,0,1-4.763,17.633,12.919,12.919,0,0,1-17.632-4.763,12.919,12.919,0,0,1,4.762-17.633l-.117-.13a13.044,13.044,0,0,0-4.81,17.8,13.045,13.045,0,0,0,17.8,4.81,13.045,13.045,0,0,0,4.81-17.8,13.045,13.045,0,0,0-17.8-4.81" transform="translate(-56.25 1012.496)" fill="#0080c5" fill-rule="evenodd"/>
        <path id="path2632" d="M43.978-1029.056a13.044,13.044,0,0,1,17.8,4.809,13.044,13.044,0,0,1-4.809,17.8,13.045,13.045,0,0,1-17.8-4.809,13.044,13.044,0,0,1,4.809-17.8l-.118-.13A13.171,13.171,0,0,0,39-1011.211a13.17,13.17,0,0,0,17.975,4.856,13.172,13.172,0,0,0,4.856-17.975,13.172,13.172,0,0,0-17.975-4.856" transform="translate(-56.25 1012.496)" fill="#007fc4" fill-rule="evenodd"/>
        <path id="path2634" d="M43.84-1029.165a13.17,13.17,0,0,1,17.975,4.855,13.17,13.17,0,0,1-4.855,17.975,13.17,13.17,0,0,1-17.975-4.855,13.17,13.17,0,0,1,4.855-17.975l-.042-.13a13.3,13.3,0,0,0-4.9,18.146,13.3,13.3,0,0,0,18.146,4.9,13.3,13.3,0,0,0,4.9-18.146,13.3,13.3,0,0,0-18.146-4.9" transform="translate(-56.25 1012.496)" fill="#007fc4" fill-rule="evenodd"/>
        <path id="path2636" d="M43.778-1029.349a13.3,13.3,0,0,1,18.146,4.9,13.3,13.3,0,0,1-4.9,18.146,13.3,13.3,0,0,1-18.146-4.9,13.3,13.3,0,0,1,4.9-18.146l-.042-.055a13.422,13.422,0,0,0-4.949,18.318,13.422,13.422,0,0,0,18.318,4.949,13.422,13.422,0,0,0,4.949-18.318,13.423,13.423,0,0,0-18.317-4.949" transform="translate(-56.25 1012.496)" fill="#007fc4" fill-rule="evenodd"/>
        <path id="path2638" d="M43.715-1029.458a13.421,13.421,0,0,1,18.318,4.948,13.421,13.421,0,0,1-4.948,18.318,13.421,13.421,0,0,1-18.317-4.948,13.421,13.421,0,0,1,4.947-18.318l-.042-.055a13.547,13.547,0,0,0-5,18.489,13.548,13.548,0,0,0,18.489,4.995,13.548,13.548,0,0,0,4.995-18.489,13.548,13.548,0,0,0-18.489-4.995" transform="translate(-56.25 1012.496)" fill="#007fc4" fill-rule="evenodd"/>
        <path id="path2640" d="M43.653-1029.491a13.546,13.546,0,0,1,18.489,4.994,13.546,13.546,0,0,1-4.994,18.489A13.546,13.546,0,0,1,38.659-1011a13.546,13.546,0,0,1,4.994-18.489l-.042-.13a13.673,13.673,0,0,0-5.041,18.66,13.673,13.673,0,0,0,18.66,5.041,13.673,13.673,0,0,0,5.041-18.66,13.673,13.673,0,0,0-18.66-5.041" transform="translate(-56.25 1012.496)" fill="#007fc4" fill-rule="evenodd"/>
        <path id="path2642" d="M43.665-1029.6a13.673,13.673,0,0,1,18.66,5.04,13.673,13.673,0,0,1-5.04,18.66,13.673,13.673,0,0,1-18.66-5.04,13.672,13.672,0,0,1,5.04-18.66l-.118-.13A13.8,13.8,0,0,0,38.46-1010.9a13.8,13.8,0,0,0,18.831,5.087,13.8,13.8,0,0,0,5.087-18.831,13.8,13.8,0,0,0-18.831-5.088" transform="translate(-56.25 1012.496)" fill="#007fc4" fill-rule="evenodd"/>
        <path id="path2644" d="M43.6-1029.709a13.8,13.8,0,0,1,18.831,5.086,13.8,13.8,0,0,1-5.086,18.831,13.8,13.8,0,0,1-18.831-5.086,13.8,13.8,0,0,1,5.086-18.831l-.118-.13a13.924,13.924,0,0,0-5.134,19,13.924,13.924,0,0,0,19,5.134,13.924,13.924,0,0,0,5.134-19,13.924,13.924,0,0,0-19-5.134" transform="translate(-56.25 1012.496)" fill="#007ec3" fill-rule="evenodd"/>
        <path id="path2646" d="M43.465-1029.818a13.922,13.922,0,0,1,19,5.133,13.922,13.922,0,0,1-5.132,19,13.923,13.923,0,0,1-19-5.132,13.922,13.922,0,0,1,5.132-19l-.042-.13a14.049,14.049,0,0,0-5.18,19.174,14.049,14.049,0,0,0,19.174,5.18,14.051,14.051,0,0,0,5.18-19.174,14.051,14.051,0,0,0-19.174-5.18" transform="translate(-56.25 1012.496)" fill="#007ec3" fill-rule="evenodd"/>
        <path id="path2648" d="M43.4-1030a14.049,14.049,0,0,1,19.174,5.179,14.049,14.049,0,0,1-5.179,19.174,14.048,14.048,0,0,1-19.174-5.18A14.047,14.047,0,0,1,43.4-1030l-.042-.054a14.174,14.174,0,0,0-5.226,19.344,14.176,14.176,0,0,0,19.345,5.226,14.176,14.176,0,0,0,5.226-19.345,14.174,14.174,0,0,0-19.345-5.225" transform="translate(-56.25 1012.496)" fill="#007dc2" fill-rule="evenodd"/>
        <path id="path2650" d="M43.34-1030.11a14.174,14.174,0,0,1,19.345,5.225,14.174,14.174,0,0,1-5.225,19.345,14.173,14.173,0,0,1-19.345-5.226,14.172,14.172,0,0,1,5.225-19.344l-.042-.054a14.3,14.3,0,0,0-5.272,19.515,14.3,14.3,0,0,0,19.516,5.272,14.3,14.3,0,0,0,5.271-19.516,14.3,14.3,0,0,0-19.515-5.271" transform="translate(-56.25 1012.496)" fill="#007dc2" fill-rule="evenodd"/>
        <path id="path2652" d="M43.278-1030.144a14.3,14.3,0,0,1,19.516,5.271,14.3,14.3,0,0,1-5.271,19.516,14.3,14.3,0,0,1-19.516-5.273,14.3,14.3,0,0,1,5.271-19.515l-.043-.129a14.425,14.425,0,0,0-5.319,19.686,14.427,14.427,0,0,0,19.688,5.319,14.425,14.425,0,0,0,5.318-19.687,14.424,14.424,0,0,0-19.686-5.318" transform="translate(-56.25 1012.496)" fill="#007dc2" fill-rule="evenodd"/>
        <path id="path2654" d="M43.216-1030.253a14.424,14.424,0,0,1,19.686,5.318,14.424,14.424,0,0,1-5.319,19.688,14.423,14.423,0,0,1-19.686-5.319,14.423,14.423,0,0,1,5.319-19.686l-.044-.129a14.55,14.55,0,0,0-5.365,19.857,14.552,14.552,0,0,0,19.859,5.365,14.55,14.55,0,0,0,5.364-19.859,14.549,14.549,0,0,0-19.858-5.364" transform="translate(-56.25 1012.496)" fill="#007dc2" fill-rule="evenodd"/>
        <path id="path2656" d="M43.229-1030.361A14.549,14.549,0,0,1,63.086-1025a14.549,14.549,0,0,1-5.365,19.857,14.549,14.549,0,0,1-19.857-5.365,14.549,14.549,0,0,1,5.365-19.857l-.119-.129a14.675,14.675,0,0,0-5.411,20.029,14.678,14.678,0,0,0,20.03,5.411,14.677,14.677,0,0,0,5.41-20.03,14.675,14.675,0,0,0-20.029-5.41" transform="translate(-56.25 1012.496)" fill="#007cc1" fill-rule="evenodd"/>
        <path id="path2658" d="M43.091-1030.47a14.674,14.674,0,0,1,20.029,5.411,14.674,14.674,0,0,1-5.411,20.029,14.674,14.674,0,0,1-20.029-5.411,14.674,14.674,0,0,1,5.411-20.029l-.044-.129a14.8,14.8,0,0,0-5.458,20.2,14.8,14.8,0,0,0,20.2,5.457,14.8,14.8,0,0,0,5.456-20.2,14.8,14.8,0,0,0-20.2-5.456" transform="translate(-56.25 1012.496)" fill="#007cc1" fill-rule="evenodd"/>
        <path id="path2660" d="M43.029-1030.579a14.8,14.8,0,0,1,20.2,5.458,14.8,14.8,0,0,1-5.458,20.2,14.8,14.8,0,0,1-20.2-5.457,14.8,14.8,0,0,1,5.458-20.2l-.044-.129a14.927,14.927,0,0,0-5.5,20.371,14.928,14.928,0,0,0,20.373,5.5,14.927,14.927,0,0,0,5.5-20.372,14.926,14.926,0,0,0-20.371-5.5" transform="translate(-56.25 1012.496)" fill="#007cc1" fill-rule="evenodd"/>
        <path id="path2662" d="M42.966-1030.762a14.925,14.925,0,0,1,20.371,5.5,14.926,14.926,0,0,1-5.5,20.371,14.926,14.926,0,0,1-20.371-5.5,14.926,14.926,0,0,1,5.5-20.371l-.044-.054a15.053,15.053,0,0,0-5.55,20.543,15.054,15.054,0,0,0,20.544,5.55,15.053,15.053,0,0,0,5.549-20.544,15.051,15.051,0,0,0-20.542-5.549" transform="translate(-56.25 1012.496)" fill="#007cc0" fill-rule="evenodd"/>
        <path id="path2664" d="M42.9-1030.8a15.051,15.051,0,0,1,20.542,5.55A15.051,15.051,0,0,1,57.9-1004.7a15.052,15.052,0,0,1-20.543-5.55A15.051,15.051,0,0,1,42.9-1030.8l-.044-.129a15.178,15.178,0,0,0-5.6,20.714,15.179,15.179,0,0,0,20.715,5.6,15.179,15.179,0,0,0,5.6-20.715,15.178,15.178,0,0,0-20.714-5.6" transform="translate(-56.25 1012.496)" fill="#007bc0" fill-rule="evenodd"/>
        <path id="path2666" d="M42.841-1030.905a15.177,15.177,0,0,1,20.714,5.6,15.177,15.177,0,0,1-5.6,20.714,15.178,15.178,0,0,1-20.714-5.6,15.177,15.177,0,0,1,5.6-20.714l-.044-.129a15.3,15.3,0,0,0-5.642,20.885,15.305,15.305,0,0,0,20.886,5.643,15.3,15.3,0,0,0,5.641-20.886,15.3,15.3,0,0,0-20.885-5.641" transform="translate(-56.25 1012.496)" fill="#007bc0" fill-rule="evenodd"/>
        <path id="path2668" d="M42.854-1031.014a15.3,15.3,0,0,1,20.885,5.642,15.3,15.3,0,0,1-5.642,20.885,15.3,15.3,0,0,1-20.885-5.643,15.3,15.3,0,0,1,5.643-20.885l-.119-.129a15.429,15.429,0,0,0-5.689,21.056A15.43,15.43,0,0,0,58.1-1004.4a15.429,15.429,0,0,0,5.688-21.058,15.428,15.428,0,0,0-21.056-5.687" transform="translate(-56.25 1012.496)" fill="#007ac0" fill-rule="evenodd"/>
        <path id="path2670" d="M42.716-1031.123a15.428,15.428,0,0,1,21.056,5.689,15.428,15.428,0,0,1-5.689,21.056,15.428,15.428,0,0,1-21.056-5.689,15.428,15.428,0,0,1,5.689-21.056l-.044-.129a15.554,15.554,0,0,0-5.735,21.228,15.555,15.555,0,0,0,21.229,5.735,15.555,15.555,0,0,0,5.734-21.229,15.554,15.554,0,0,0-21.227-5.734" transform="translate(-56.25 1012.496)" fill="#007ac0" fill-rule="evenodd"/>
        <path id="path2672" d="M42.654-1031.231a15.553,15.553,0,0,1,21.227,5.735,15.553,15.553,0,0,1-5.735,21.228A15.554,15.554,0,0,1,36.919-1010a15.553,15.553,0,0,1,5.735-21.228l-.044-.129a15.68,15.68,0,0,0-5.781,21.4,15.682,15.682,0,0,0,21.4,5.781,15.68,15.68,0,0,0,5.78-21.4,15.679,15.679,0,0,0-21.4-5.78" transform="translate(-56.25 1012.496)" fill="#007abf" fill-rule="evenodd"/>
        <path id="path2674" d="M42.591-1031.415a15.679,15.679,0,0,1,21.4,5.781,15.679,15.679,0,0,1-5.781,21.4,15.679,15.679,0,0,1-21.4-5.781,15.68,15.68,0,0,1,5.781-21.4l-.044-.054a15.805,15.805,0,0,0-5.827,21.57,15.807,15.807,0,0,0,21.571,5.827,15.806,15.806,0,0,0,5.826-21.571,15.8,15.8,0,0,0-21.57-5.826" transform="translate(-56.25 1012.496)" fill="#007abf" fill-rule="evenodd"/>
        <path id="path2676" d="M42.529-1031.449a15.8,15.8,0,0,1,21.57,5.828,15.8,15.8,0,0,1-5.827,21.57,15.805,15.805,0,0,1-21.57-5.828,15.8,15.8,0,0,1,5.827-21.57l-.044-.129a15.932,15.932,0,0,0-5.874,21.741,15.933,15.933,0,0,0,21.743,5.874,15.93,15.93,0,0,0,5.873-21.741,15.929,15.929,0,0,0-21.741-5.874" transform="translate(-56.25 1012.496)" fill="#0079be" fill-rule="evenodd"/>
        <path id="path2678" d="M42.466-1031.557a15.929,15.929,0,0,1,21.741,5.874,15.93,15.93,0,0,1-5.874,21.741,15.932,15.932,0,0,1-21.741-5.874,15.929,15.929,0,0,1,5.874-21.741l-.044-.129a16.057,16.057,0,0,0-5.92,21.913,16.058,16.058,0,0,0,21.914,5.92,16.058,16.058,0,0,0,5.919-21.914,16.056,16.056,0,0,0-21.912-5.919" transform="translate(-56.25 1012.496)" fill="#0079be" fill-rule="evenodd"/>
        <path id="path2680" d="M42.479-1031.666a16.056,16.056,0,0,1,21.912,5.92,16.056,16.056,0,0,1-5.92,21.913,16.057,16.057,0,0,1-21.913-5.92,16.056,16.056,0,0,1,5.92-21.913l-.119-.129a16.183,16.183,0,0,0-5.966,22.084,16.182,16.182,0,0,0,22.085,5.965,16.179,16.179,0,0,0,5.965-22.082A16.181,16.181,0,0,0,42.36-1031.8" transform="translate(-56.25 1012.496)" fill="#0079be" fill-rule="evenodd"/>
        <path id="path2682" d="M42.341-1031.775a16.181,16.181,0,0,1,22.084,5.966,16.181,16.181,0,0,1-5.966,22.084,16.182,16.182,0,0,1-22.084-5.966,16.181,16.181,0,0,1,5.966-22.084l-.044-.129a16.306,16.306,0,0,0-6.011,22.255,16.3,16.3,0,0,0,22.254,6.011,16.3,16.3,0,0,0,6.012-22.254A16.307,16.307,0,0,0,42.3-1031.9" transform="translate(-56.25 1012.496)" fill="#0078be" fill-rule="evenodd"/>
        <path id="path2684" d="M42.279-1031.884a16.308,16.308,0,0,1,22.255,6.012,16.307,16.307,0,0,1-6.013,22.255,16.308,16.308,0,0,1-22.255-6.013,16.307,16.307,0,0,1,6.013-22.255l-.044-.129a16.433,16.433,0,0,0-6.057,22.426,16.431,16.431,0,0,0,22.425,6.057,16.43,16.43,0,0,0,6.059-22.425,16.431,16.431,0,0,0-22.426-6.059" transform="translate(-56.25 1012.496)" fill="#0078be" fill-rule="evenodd"/>
        <path id="path2686" d="M42.216-1032.068a16.433,16.433,0,0,1,22.426,6.059,16.432,16.432,0,0,1-6.059,22.426,16.433,16.433,0,0,1-22.426-6.059,16.432,16.432,0,0,1,6.059-22.426l-.044-.054a16.558,16.558,0,0,0-6.1,22.6,16.556,16.556,0,0,0,22.6,6.1,16.555,16.555,0,0,0,6.105-22.6,16.557,16.557,0,0,0-22.6-6.105" transform="translate(-56.25 1012.496)" fill="#0078bd" fill-rule="evenodd"/>
        <path id="path2688" d="M42.154-1032.1a16.558,16.558,0,0,1,22.6,6.105,16.558,16.558,0,0,1-6.105,22.6,16.559,16.559,0,0,1-22.6-6.105,16.558,16.558,0,0,1,6.1-22.6l-.044-.129a16.682,16.682,0,0,0-6.15,22.769,16.681,16.681,0,0,0,22.767,6.15,16.682,16.682,0,0,0,6.151-22.768,16.683,16.683,0,0,0-22.769-6.151" transform="translate(-56.25 1012.496)" fill="#0078bd" fill-rule="evenodd"/>
        <path id="path2690" d="M42.091-1032.21a16.684,16.684,0,0,1,22.769,6.151,16.684,16.684,0,0,1-6.151,22.769,16.684,16.684,0,0,1-22.769-6.151,16.684,16.684,0,0,1,6.151-22.769l-.044-.129a16.809,16.809,0,0,0-6.2,22.94,16.807,16.807,0,0,0,22.939,6.2,16.806,16.806,0,0,0,6.2-22.939,16.808,16.808,0,0,0-22.94-6.2" transform="translate(-56.25 1012.496)" fill="#0077bc" fill-rule="evenodd"/>
        <path id="path2692" d="M42.1-1032.319a16.81,16.81,0,0,1,22.94,6.2,16.81,16.81,0,0,1-6.2,22.94,16.81,16.81,0,0,1-22.94-6.2,16.809,16.809,0,0,1,6.2-22.94l-.119-.129a16.934,16.934,0,0,0-6.243,23.111,16.932,16.932,0,0,0,23.11,6.242A16.933,16.933,0,0,0,65.1-1026.2a16.934,16.934,0,0,0-23.111-6.244" transform="translate(-56.25 1012.496)" fill="#0077bc" fill-rule="evenodd"/>
        <path id="path2694" d="M41.966-1032.427a16.936,16.936,0,0,1,23.111,6.244,16.936,16.936,0,0,1-6.244,23.111,16.935,16.935,0,0,1-23.111-6.244,16.936,16.936,0,0,1,6.244-23.111l-.044-.129a17.06,17.06,0,0,0-6.289,23.283,17.059,17.059,0,0,0,23.281,6.289,17.058,17.058,0,0,0,6.29-23.281,17.059,17.059,0,0,0-23.283-6.29" transform="translate(-56.25 1012.496)" fill="#0077bc" fill-rule="evenodd"/>
        <path id="path2696" d="M41.9-1032.536a17.06,17.06,0,0,1,23.283,6.29,17.06,17.06,0,0,1-6.29,23.283,17.062,17.062,0,0,1-23.283-6.29,17.06,17.06,0,0,1,6.29-23.283l-.044-.129a17.185,17.185,0,0,0-6.335,23.454,17.183,17.183,0,0,0,23.452,6.335,17.183,17.183,0,0,0,6.336-23.452,17.185,17.185,0,0,0-23.454-6.336" transform="translate(-56.25 1012.496)" fill="#0076bc" fill-rule="evenodd"/>
        <path id="path2698" d="M41.841-1032.72a17.187,17.187,0,0,1,23.454,6.336,17.187,17.187,0,0,1-6.336,23.454,17.187,17.187,0,0,1-23.454-6.336,17.187,17.187,0,0,1,6.336-23.454l-.044-.054a17.311,17.311,0,0,0-6.381,23.625,17.31,17.31,0,0,0,23.624,6.381,17.309,17.309,0,0,0,6.383-23.624,17.31,17.31,0,0,0-23.625-6.382" transform="translate(-56.25 1012.496)" fill="#0076bc" fill-rule="evenodd"/>
        <path id="path2700" d="M41.779-1032.754a17.312,17.312,0,0,1,23.625,6.383,17.31,17.31,0,0,1-6.383,23.624,17.31,17.31,0,0,1-23.625-6.381,17.312,17.312,0,0,1,6.383-23.625l-.044-.129a17.436,17.436,0,0,0-6.428,23.8,17.435,17.435,0,0,0,23.8,6.427,17.434,17.434,0,0,0,6.429-23.8,17.435,17.435,0,0,0-23.8-6.429" transform="translate(-56.25 1012.496)" fill="#0076bb" fill-rule="evenodd"/>
        <path id="path2702" d="M41.716-1032.862a17.438,17.438,0,0,1,23.8,6.429,17.438,17.438,0,0,1-6.429,23.8,17.438,17.438,0,0,1-23.8-6.429,17.438,17.438,0,0,1,6.429-23.8l-.044-.129a17.561,17.561,0,0,0-6.474,23.968,17.56,17.56,0,0,0,23.966,6.474,17.56,17.56,0,0,0,6.475-23.966,17.561,17.561,0,0,0-23.967-6.475" transform="translate(-56.25 1012.496)" fill="#0076bb" fill-rule="evenodd"/>
        <path id="path2704" d="M41.729-1032.971A17.563,17.563,0,0,1,65.7-1026.5a17.561,17.561,0,0,1-6.475,23.966A17.561,17.561,0,0,1,35.254-1009a17.563,17.563,0,0,1,6.475-23.968l-.119-.129a17.687,17.687,0,0,0-6.52,24.139,17.686,17.686,0,0,0,24.138,6.52,17.685,17.685,0,0,0,6.521-24.137A17.686,17.686,0,0,0,41.61-1033.1" transform="translate(-56.25 1012.496)" fill="#0075ba" fill-rule="evenodd"/>
        <path id="path2706" d="M41.591-1033.08a17.689,17.689,0,0,1,24.139,6.521,17.687,17.687,0,0,1-6.521,24.137,17.687,17.687,0,0,1-24.139-6.52,17.689,17.689,0,0,1,6.521-24.139l-.044-.129a17.812,17.812,0,0,0-6.566,24.31,17.811,17.811,0,0,0,24.309,6.566,17.811,17.811,0,0,0,6.567-24.309,17.813,17.813,0,0,0-24.31-6.568" transform="translate(-56.25 1012.496)" fill="#0075ba" fill-rule="evenodd"/>
        <path id="path2708" d="M41.529-1033.189a17.812,17.812,0,0,1,24.309,6.568,17.811,17.811,0,0,1-6.566,24.309,17.812,17.812,0,0,1-24.31-6.566,17.814,17.814,0,0,1,6.567-24.31l-.044-.129a17.939,17.939,0,0,0-6.612,24.481,17.937,17.937,0,0,0,24.48,6.612,17.937,17.937,0,0,0,6.614-24.48,17.938,17.938,0,0,0-24.481-6.614" transform="translate(-56.25 1012.496)" fill="#0075ba" fill-rule="evenodd"/>
        <path id="path2710" d="M41.466-1033.373a17.938,17.938,0,0,1,24.48,6.614,17.936,17.936,0,0,1-6.613,24.48,17.937,17.937,0,0,1-24.48-6.612,17.938,17.938,0,0,1,6.613-24.481l-.044-.054a18.064,18.064,0,0,0-6.659,24.653,18.063,18.063,0,0,0,24.651,6.659,18.063,18.063,0,0,0,6.66-24.651,18.064,18.064,0,0,0-24.652-6.66" transform="translate(-56.25 1012.496)" fill="#0074ba" fill-rule="evenodd"/>
        <path id="path2712" d="M41.4-1033.48a18.062,18.062,0,0,1,24.651,6.659A18.062,18.062,0,0,1,59.4-1002.17a18.062,18.062,0,0,1-24.651-6.659A18.062,18.062,0,0,1,41.4-1033.48l-.044-.055a18.19,18.19,0,0,0-6.7,24.824,18.189,18.189,0,0,0,24.822,6.7,18.188,18.188,0,0,0,6.706-24.822,18.189,18.189,0,0,0-24.824-6.706" transform="translate(-56.25 1012.496)" fill="#0074ba" fill-rule="evenodd"/>
        <path id="path2714" d="M41.341-1033.514a18.187,18.187,0,0,1,24.822,6.7,18.187,18.187,0,0,1-6.7,24.823,18.187,18.187,0,0,1-24.823-6.705,18.187,18.187,0,0,1,6.705-24.822l-.044-.13a18.315,18.315,0,0,0-6.751,24.995A18.314,18.314,0,0,0,59.54-1001.9a18.313,18.313,0,0,0,6.753-24.994,18.314,18.314,0,0,0-25-6.752" transform="translate(-56.25 1012.496)" fill="#0073b9" fill-rule="evenodd"/>
        <path id="path2716" d="M41.354-1033.623a18.313,18.313,0,0,1,24.994,6.751,18.313,18.313,0,0,1-6.751,24.994,18.313,18.313,0,0,1-24.994-6.751,18.313,18.313,0,0,1,6.751-24.994l-.119-.13a18.44,18.44,0,0,0-6.8,25.165,18.439,18.439,0,0,0,25.165,6.8,18.439,18.439,0,0,0,6.8-25.165,18.44,18.44,0,0,0-25.166-6.8" transform="translate(-56.25 1012.496)" fill="#0073b8" fill-rule="evenodd"/>
        <path id="path2718" d="M41.291-1033.731a18.438,18.438,0,0,1,25.165,6.8,18.438,18.438,0,0,1-6.8,25.165,18.438,18.438,0,0,1-25.165-6.8,18.438,18.438,0,0,1,6.8-25.165l-.118-.13a18.564,18.564,0,0,0-6.845,25.336,18.564,18.564,0,0,0,25.336,6.845,18.564,18.564,0,0,0,6.845-25.336,18.564,18.564,0,0,0-25.336-6.845" transform="translate(-56.25 1012.496)" fill="#0073b8" fill-rule="evenodd"/>
        <path id="path2720" d="M41.154-1033.84A18.565,18.565,0,0,1,66.49-1027a18.565,18.565,0,0,1-6.844,25.336A18.565,18.565,0,0,1,34.31-1008.5a18.565,18.565,0,0,1,6.844-25.336l-.042-.13a18.689,18.689,0,0,0-6.891,25.507,18.689,18.689,0,0,0,25.507,6.891,18.69,18.69,0,0,0,6.891-25.507,18.69,18.69,0,0,0-25.507-6.891" transform="translate(-56.25 1012.496)" fill="#0072b8" fill-rule="evenodd"/>
        <path id="path2722" d="M41.091-1034.024a18.689,18.689,0,0,1,25.507,6.89,18.689,18.689,0,0,1-6.89,25.507,18.689,18.689,0,0,1-25.507-6.89,18.689,18.689,0,0,1,6.89-25.507l-.042-.055a18.816,18.816,0,0,0-6.938,25.679,18.815,18.815,0,0,0,25.679,6.938,18.815,18.815,0,0,0,6.938-25.679,18.816,18.816,0,0,0-25.679-6.937" transform="translate(-56.25 1012.496)" fill="#0072b7" fill-rule="evenodd"/>
        <path id="path2724" d="M41.029-1034.133a18.816,18.816,0,0,1,25.679,6.936,18.815,18.815,0,0,1-6.936,25.679,18.816,18.816,0,0,1-25.679-6.936,18.815,18.815,0,0,1,6.936-25.679l-.042-.055A18.941,18.941,0,0,0,34-1008.337a18.94,18.94,0,0,0,25.85,6.984,18.941,18.941,0,0,0,6.984-25.85,18.942,18.942,0,0,0-25.85-6.984" transform="translate(-56.25 1012.496)" fill="#0072b7" fill-rule="evenodd"/>
        <path id="path2726" d="M40.966-1034.166a18.941,18.941,0,0,1,25.85,6.983,18.941,18.941,0,0,1-6.982,25.85,18.941,18.941,0,0,1-25.85-6.983,18.941,18.941,0,0,1,6.982-25.85l-.042-.13a19.067,19.067,0,0,0-7.03,26.021,19.066,19.066,0,0,0,26.021,7.03,19.066,19.066,0,0,0,7.03-26.021,19.068,19.068,0,0,0-26.021-7.03" transform="translate(-56.25 1012.496)" fill="#0071b7" fill-rule="evenodd"/>
        <path id="path2728" d="M40.979-1034.275A19.066,19.066,0,0,1,67-1027.246a19.066,19.066,0,0,1-7.029,26.021,19.066,19.066,0,0,1-26.021-7.029,19.066,19.066,0,0,1,7.029-26.021l-.118-.129a19.19,19.19,0,0,0-7.076,26.191,19.191,19.191,0,0,0,26.192,7.076,19.193,19.193,0,0,0,7.076-26.193,19.192,19.192,0,0,0-26.193-7.075" transform="translate(-56.25 1012.496)" fill="#0071b6" fill-rule="evenodd"/>
        <path id="path2730" d="M40.916-1034.384a19.192,19.192,0,0,1,26.192,7.075,19.192,19.192,0,0,1-7.075,26.192,19.192,19.192,0,0,1-26.193-7.075,19.192,19.192,0,0,1,7.075-26.193l-.118-.129a19.316,19.316,0,0,0-7.123,26.362,19.318,19.318,0,0,0,26.364,7.122,19.318,19.318,0,0,0,7.122-26.364,19.316,19.316,0,0,0-26.364-7.121" transform="translate(-56.25 1012.496)" fill="#0071b6" fill-rule="evenodd"/>
        <path id="path2732" d="M40.779-1034.492a19.317,19.317,0,0,1,26.364,7.121,19.317,19.317,0,0,1-7.121,26.364,19.317,19.317,0,0,1-26.364-7.121,19.317,19.317,0,0,1,7.121-26.364l-.042-.129a19.442,19.442,0,0,0-7.169,26.534,19.443,19.443,0,0,0,26.535,7.169,19.441,19.441,0,0,0,7.168-26.535,19.441,19.441,0,0,0-26.534-7.168" transform="translate(-56.25 1012.496)" fill="#0070b6" fill-rule="evenodd"/>
        <path id="path2734" d="M40.716-1034.676a19.443,19.443,0,0,1,26.535,7.167,19.443,19.443,0,0,1-7.167,26.535,19.443,19.443,0,0,1-26.535-7.167,19.443,19.443,0,0,1,7.167-26.535l-.042-.054a19.566,19.566,0,0,0-7.215,26.705,19.568,19.568,0,0,0,26.706,7.215,19.567,19.567,0,0,0,7.214-26.706,19.567,19.567,0,0,0-26.705-7.214" transform="translate(-56.25 1012.496)" fill="#0070b6" fill-rule="evenodd"/>
        <path id="path2736" d="M40.654-1034.785a19.569,19.569,0,0,1,26.706,7.214,19.569,19.569,0,0,1-7.214,26.706,19.568,19.568,0,0,1-26.706-7.215,19.568,19.568,0,0,1,7.214-26.705l-.042-.054a19.693,19.693,0,0,0-7.261,26.876,19.694,19.694,0,0,0,26.878,7.261,19.693,19.693,0,0,0,7.26-26.878,19.692,19.692,0,0,0-26.876-7.26" transform="translate(-56.25 1012.496)" fill="#0070b6" fill-rule="evenodd"/>
        <path id="path2738" d="M40.591-1034.819a19.7,19.7,0,0,1,26.878,7.26,19.694,19.694,0,0,1-7.26,26.878,19.694,19.694,0,0,1-26.877-7.261,19.693,19.693,0,0,1,7.26-26.876l-.042-.129a19.818,19.818,0,0,0-7.307,27.047,19.819,19.819,0,0,0,27.049,7.307,19.819,19.819,0,0,0,7.306-27.049,19.818,19.818,0,0,0-27.048-7.306" transform="translate(-56.25 1012.496)" fill="#006fb5" fill-rule="evenodd"/>
        <path id="path2740" d="M40.6-1034.927a19.82,19.82,0,0,1,27.049,7.306,19.82,19.82,0,0,1-7.306,27.049,19.82,19.82,0,0,1-27.049-7.306,19.82,19.82,0,0,1,7.306-27.049l-.118-.129a19.944,19.944,0,0,0-7.354,27.219,19.945,19.945,0,0,0,27.22,7.354,19.944,19.944,0,0,0,7.353-27.22,19.943,19.943,0,0,0-27.219-7.353" transform="translate(-56.25 1012.496)" fill="#006fb4" fill-rule="evenodd"/>
        <path id="path2742" d="M40.541-1035.036a19.944,19.944,0,0,1,27.22,7.354,19.943,19.943,0,0,1-7.352,27.219,19.944,19.944,0,0,1-27.22-7.354,19.944,19.944,0,0,1,7.352-27.219l-.117-.129a20.069,20.069,0,0,0-7.4,27.39,20.07,20.07,0,0,0,27.391,7.4,20.07,20.07,0,0,0,7.4-27.391,20.07,20.07,0,0,0-27.39-7.4" transform="translate(-56.25 1012.496)" fill="#006fb4" fill-rule="evenodd"/>
        <path id="path2744" d="M40.4-1035.145a20.071,20.071,0,0,1,27.391,7.4,20.071,20.071,0,0,1-7.4,27.391,20.07,20.07,0,0,1-27.391-7.4,20.07,20.07,0,0,1,7.4-27.39l-.042-.129a20.2,20.2,0,0,0-7.446,27.561,20.2,20.2,0,0,0,27.563,7.446,20.2,20.2,0,0,0,7.445-27.562,20.194,20.194,0,0,0-27.561-7.445" transform="translate(-56.25 1012.496)" fill="#006eb4" fill-rule="evenodd"/>
        <path id="path2746" d="M40.341-1035.329a20.2,20.2,0,0,1,27.563,7.445,20.2,20.2,0,0,1-7.445,27.562,20.2,20.2,0,0,1-27.563-7.446,20.2,20.2,0,0,1,7.445-27.561l-.042-.054a20.32,20.32,0,0,0-7.492,27.733,20.322,20.322,0,0,0,27.734,7.493,20.321,20.321,0,0,0,7.491-27.734,20.32,20.32,0,0,0-27.733-7.491" transform="translate(-56.25 1012.496)" fill="#006eb4" fill-rule="evenodd"/>
        <path id="path2748" d="M40.28-1035.437a20.32,20.32,0,0,1,27.732,7.492,20.32,20.32,0,0,1-7.492,27.733,20.32,20.32,0,0,1-27.733-7.493,20.32,20.32,0,0,1,7.493-27.732l-.044-.054a20.445,20.445,0,0,0-7.539,27.9,20.448,20.448,0,0,0,27.9,7.539,20.447,20.447,0,0,0,7.538-27.9,20.446,20.446,0,0,0-27.9-7.537" transform="translate(-56.25 1012.496)" fill="#006db3" fill-rule="evenodd"/>
        <path id="path2750" d="M40.217-1035.471a20.445,20.445,0,0,1,27.9,7.539,20.445,20.445,0,0,1-7.539,27.9,20.445,20.445,0,0,1-27.9-7.539,20.445,20.445,0,0,1,7.539-27.9l-.044-.129a20.571,20.571,0,0,0-7.585,28.075,20.573,20.573,0,0,0,28.076,7.585,20.572,20.572,0,0,0,7.584-28.076,20.571,20.571,0,0,0-28.075-7.584" transform="translate(-56.25 1012.496)" fill="#006db3" fill-rule="evenodd"/>
        <path id="path2752" d="M40.23-1035.58a20.571,20.571,0,0,1,28.075,7.585A20.572,20.572,0,0,1,60.72-999.92a20.571,20.571,0,0,1-28.075-7.585,20.571,20.571,0,0,1,7.585-28.075l-.119-.129a20.7,20.7,0,0,0-7.631,28.246,20.7,20.7,0,0,0,28.248,7.631,20.7,20.7,0,0,0,7.63-28.247,20.7,20.7,0,0,0-28.246-7.63" transform="translate(-56.25 1012.496)" fill="#006cb2" fill-rule="evenodd"/>
        <path id="path2754" d="M40.167-1035.689a20.7,20.7,0,0,1,28.246,7.631,20.7,20.7,0,0,1-7.631,28.246,20.7,20.7,0,0,1-28.246-7.631,20.7,20.7,0,0,1,7.631-28.246l-.119-.129a20.822,20.822,0,0,0-7.678,28.418,20.824,20.824,0,0,0,28.419,7.677,20.824,20.824,0,0,0,7.676-28.419,20.822,20.822,0,0,0-28.417-7.676" transform="translate(-56.25 1012.496)" fill="#006cb2" fill-rule="evenodd"/>
        <path id="path2756" d="M40.03-1035.8a20.822,20.822,0,0,1,28.418,7.677A20.823,20.823,0,0,1,60.77-999.7a20.823,20.823,0,0,1-28.417-7.677A20.822,20.822,0,0,1,40.03-1035.8l-.044-.129a20.947,20.947,0,0,0-7.724,28.589,20.949,20.949,0,0,0,28.59,7.724,20.95,20.95,0,0,0,7.722-28.59,20.948,20.948,0,0,0-28.589-7.723" transform="translate(-56.25 1012.496)" fill="#006cb2" fill-rule="evenodd"/>
        <path id="path2758" d="M39.968-1035.981a20.948,20.948,0,0,1,28.589,7.724,20.948,20.948,0,0,1-7.724,28.589,20.948,20.948,0,0,1-28.589-7.724,20.948,20.948,0,0,1,7.724-28.589l-.044-.054a21.074,21.074,0,0,0-7.77,28.76,21.075,21.075,0,0,0,28.761,7.77,21.075,21.075,0,0,0,7.769-28.761,21.074,21.074,0,0,0-28.76-7.769" transform="translate(-56.25 1012.496)" fill="#006cb2" fill-rule="evenodd"/>
        <path id="path2760" d="M39.9-1036.09a21.073,21.073,0,0,1,28.76,7.77,21.073,21.073,0,0,1-7.77,28.76,21.073,21.073,0,0,1-28.76-7.77,21.073,21.073,0,0,1,7.77-28.76l-.044-.054a21.2,21.2,0,0,0-7.816,28.931A21.2,21.2,0,0,0,60.978-999.4a21.2,21.2,0,0,0,7.815-28.931,21.2,21.2,0,0,0-28.931-7.815" transform="translate(-56.25 1012.496)" fill="#006bb1" fill-rule="evenodd"/>
        <path id="path2762" d="M39.842-1036.124a21.2,21.2,0,0,1,28.931,7.816,21.2,21.2,0,0,1-7.816,28.931,21.2,21.2,0,0,1-28.931-7.816,21.2,21.2,0,0,1,7.816-28.931l-.044-.129a21.325,21.325,0,0,0-7.863,29.1,21.325,21.325,0,0,0,29.1,7.861,21.324,21.324,0,0,0,7.861-29.1,21.325,21.325,0,0,0-29.1-7.861" transform="translate(-56.25 1012.496)" fill="#006bb1" fill-rule="evenodd"/>
        <path id="path2764" d="M39.855-1036.233a21.324,21.324,0,0,1,29.1,7.863,21.324,21.324,0,0,1-7.863,29.1,21.324,21.324,0,0,1-29.1-7.862,21.324,21.324,0,0,1,7.862-29.1l-.119-.129a21.448,21.448,0,0,0-7.907,29.274A21.448,21.448,0,0,0,61.1-999.18a21.449,21.449,0,0,0,7.908-29.274,21.449,21.449,0,0,0-29.274-7.907" transform="translate(-56.25 1012.496)" fill="#006ab1" fill-rule="evenodd"/>
        <path id="path2766" d="M39.792-1036.341a21.451,21.451,0,0,1,29.274,7.909,21.45,21.45,0,0,1-7.909,29.274,21.45,21.45,0,0,1-29.274-7.909,21.45,21.45,0,0,1,7.909-29.274l-.119-.129a21.573,21.573,0,0,0-7.954,29.445,21.573,21.573,0,0,0,29.445,7.954,21.576,21.576,0,0,0,7.954-29.445,21.575,21.575,0,0,0-29.445-7.954" transform="translate(-56.25 1012.496)" fill="#006ab0" fill-rule="evenodd"/>
        <path id="path2768" d="M39.655-1036.45a21.575,21.575,0,0,1,29.445,7.955,21.575,21.575,0,0,1-7.955,29.445,21.575,21.575,0,0,1-29.445-7.955,21.575,21.575,0,0,1,7.955-29.445l-.044-.129a21.7,21.7,0,0,0-8,29.616,21.7,21.7,0,0,0,29.616,8,21.7,21.7,0,0,0,8-29.615,21.7,21.7,0,0,0-29.616-8" transform="translate(-56.25 1012.496)" fill="#006ab0" fill-rule="evenodd"/>
        <path id="path2770" d="M39.592-1036.634a21.7,21.7,0,0,1,29.616,8,21.7,21.7,0,0,1-8,29.616,21.7,21.7,0,0,1-29.616-8,21.7,21.7,0,0,1,8-29.616l-.044-.054A21.825,21.825,0,0,0,31.5-1006.9a21.825,21.825,0,0,0,29.788,8.046,21.826,21.826,0,0,0,8.046-29.786,21.826,21.826,0,0,0-29.787-8.047" transform="translate(-56.25 1012.496)" fill="#0069af" fill-rule="evenodd"/>
        <path id="path2772" d="M39.53-1036.742a21.826,21.826,0,0,1,29.787,8.047,21.826,21.826,0,0,1-8.048,29.787,21.827,21.827,0,0,1-29.787-8.048,21.826,21.826,0,0,1,8.047-29.787l-.044-.054a21.951,21.951,0,0,0-8.093,29.959,21.951,21.951,0,0,0,29.959,8.092,21.951,21.951,0,0,0,8.092-29.958,21.951,21.951,0,0,0-29.959-8.094" transform="translate(-56.25 1012.496)" fill="#0069af" fill-rule="evenodd"/>
        <path id="path2774" d="M39.467-1036.776a21.951,21.951,0,0,1,29.959,8.094,21.951,21.951,0,0,1-8.094,29.959,21.952,21.952,0,0,1-29.959-8.094,21.952,21.952,0,0,1,8.094-29.959l-.044-.129a22.076,22.076,0,0,0-8.139,30.13,22.076,22.076,0,0,0,30.13,8.139,22.077,22.077,0,0,0,8.139-30.129,22.078,22.078,0,0,0-30.13-8.14" transform="translate(-56.25 1012.496)" fill="#0068af" fill-rule="evenodd"/>
        <path id="path2776" d="M39.48-1036.885a22.078,22.078,0,0,1,30.13,8.14,22.078,22.078,0,0,1-8.14,30.13,22.078,22.078,0,0,1-30.13-8.14,22.078,22.078,0,0,1,8.14-30.13l-.119-.129a22.2,22.2,0,0,0-8.185,30.3,22.2,22.2,0,0,0,30.3,8.185,22.2,22.2,0,0,0,8.186-30.3,22.2,22.2,0,0,0-30.3-8.186" transform="translate(-56.25 1012.496)" fill="#0068af" fill-rule="evenodd"/>
        <path id="path2778" d="M39.417-1036.994a22.2,22.2,0,0,1,30.3,8.186,22.2,22.2,0,0,1-8.186,30.3,22.2,22.2,0,0,1-30.3-8.186,22.2,22.2,0,0,1,8.186-30.3l-.119-.129a22.327,22.327,0,0,0-8.231,30.473,22.326,22.326,0,0,0,30.471,8.231,22.326,22.326,0,0,0,8.233-30.471,22.328,22.328,0,0,0-30.473-8.233" transform="translate(-56.25 1012.496)" fill="#0068ae" fill-rule="evenodd"/>
        <path id="path2780" d="M39.28-1037.1a22.329,22.329,0,0,1,30.472,8.233A22.327,22.327,0,0,1,61.52-998.4a22.327,22.327,0,0,1-30.473-8.231A22.329,22.329,0,0,1,39.28-1037.1l-.044-.129a22.452,22.452,0,0,0-8.278,30.644A22.452,22.452,0,0,0,61.6-998.31a22.452,22.452,0,0,0,8.279-30.642,22.454,22.454,0,0,0-30.644-8.279" transform="translate(-56.25 1012.496)" fill="#0067ad" fill-rule="evenodd"/>
        <path id="path2782" d="M39.217-1037.286a22.454,22.454,0,0,1,30.644,8.279,22.452,22.452,0,0,1-8.279,30.642,22.452,22.452,0,0,1-30.644-8.278,22.454,22.454,0,0,1,8.279-30.644l-.044-.054a22.578,22.578,0,0,0-8.324,30.815A22.577,22.577,0,0,0,61.664-998.2a22.577,22.577,0,0,0,8.325-30.814,22.579,22.579,0,0,0-30.815-8.325" transform="translate(-56.25 1012.496)" fill="#0067ad" fill-rule="evenodd"/>
        <path id="path2784" d="M39.155-1037.4a22.58,22.58,0,0,1,30.815,8.325,22.58,22.58,0,0,1-8.325,30.815,22.58,22.58,0,0,1-30.815-8.325,22.58,22.58,0,0,1,8.325-30.815l-.044-.054a22.7,22.7,0,0,0-8.37,30.986,22.7,22.7,0,0,0,30.985,8.37,22.7,22.7,0,0,0,8.371-30.985,22.705,22.705,0,0,0-30.986-8.371" transform="translate(-56.25 1012.496)" fill="#0067ad" fill-rule="evenodd"/>
        <path id="path2786" d="M39.092-1037.429a22.705,22.705,0,0,1,30.986,8.371,22.7,22.7,0,0,1-8.371,30.985,22.7,22.7,0,0,1-30.986-8.37,22.705,22.705,0,0,1,8.371-30.986l-.044-.129a22.83,22.83,0,0,0-8.416,31.157,22.828,22.828,0,0,0,31.156,8.416,22.829,22.829,0,0,0,8.418-31.156,22.83,22.83,0,0,0-31.158-8.417" transform="translate(-56.25 1012.496)" fill="#0066ad" fill-rule="evenodd"/>
        <path id="path2788" d="M39.03-1037.538a22.832,22.832,0,0,1,31.157,8.418,22.829,22.829,0,0,1-8.417,31.156,22.83,22.83,0,0,1-31.158-8.416,22.83,22.83,0,0,1,8.418-31.158l-.044-.129a22.955,22.955,0,0,0-8.462,31.329,22.953,22.953,0,0,0,31.327,8.462,22.955,22.955,0,0,0,8.464-31.327,22.956,22.956,0,0,0-31.329-8.464" transform="translate(-56.25 1012.496)" fill="#0066ac" fill-rule="evenodd"/>
        <path id="path2790" d="M39.042-1037.645a22.953,22.953,0,0,1,31.328,8.463,22.953,22.953,0,0,1-8.463,31.328,22.953,22.953,0,0,1-31.327-8.463,22.953,22.953,0,0,1,8.462-31.328l-.119-.13a23.081,23.081,0,0,0-8.509,31.5,23.081,23.081,0,0,0,31.5,8.509,23.08,23.08,0,0,0,8.51-31.5,23.081,23.081,0,0,0-31.5-8.51" transform="translate(-56.25 1012.496)" fill="#0065ac" fill-rule="evenodd"/>
        <path id="path2792" d="M38.9-1037.754a23.078,23.078,0,0,1,31.5,8.509,23.078,23.078,0,0,1-8.509,31.5,23.08,23.08,0,0,1-31.5-8.509,23.08,23.08,0,0,1,8.51-31.5l-.044-.13a23.206,23.206,0,0,0-8.555,31.671,23.206,23.206,0,0,0,31.67,8.555,23.205,23.205,0,0,0,8.556-31.67,23.208,23.208,0,0,0-31.671-8.556" transform="translate(-56.25 1012.496)" fill="#0065ac" fill-rule="evenodd"/>
        <path id="path2794" d="M38.842-1037.862a23.2,23.2,0,0,1,31.67,8.555,23.2,23.2,0,0,1-8.555,31.67,23.2,23.2,0,0,1-31.67-8.555,23.2,23.2,0,0,1,8.555-31.67l-.044-.13a23.332,23.332,0,0,0-8.6,31.842,23.331,23.331,0,0,0,31.841,8.6,23.331,23.331,0,0,0,8.6-31.841,23.333,23.333,0,0,0-31.843-8.6" transform="translate(-56.25 1012.496)" fill="#0065ab" fill-rule="evenodd"/>
        <path id="path2796" d="M38.78-1038.046a23.33,23.33,0,0,1,31.841,8.6,23.33,23.33,0,0,1-8.6,31.841,23.329,23.329,0,0,1-31.841-8.6,23.33,23.33,0,0,1,8.6-31.841l-.044-.055a23.457,23.457,0,0,0-8.648,32.014A23.457,23.457,0,0,0,62.1-997.44a23.456,23.456,0,0,0,8.649-32.012,23.458,23.458,0,0,0-32.014-8.649" transform="translate(-56.25 1012.496)" fill="#0064ab" fill-rule="evenodd"/>
        <path id="path2798" d="M38.718-1038.08a23.456,23.456,0,0,1,32.012,8.647,23.456,23.456,0,0,1-8.647,32.013,23.456,23.456,0,0,1-32.013-8.648,23.456,23.456,0,0,1,8.648-32.012l-.044-.13a23.582,23.582,0,0,0-8.694,32.185,23.582,23.582,0,0,0,32.184,8.694,23.582,23.582,0,0,0,8.695-32.184,23.584,23.584,0,0,0-32.185-8.695" transform="translate(-56.25 1012.496)" fill="#0064aa" fill-rule="evenodd"/>
        <path id="path2800" d="M38.655-1038.189a23.581,23.581,0,0,1,32.184,8.694,23.581,23.581,0,0,1-8.694,32.184,23.581,23.581,0,0,1-32.184-8.694,23.581,23.581,0,0,1,8.694-32.184l-.044-.13a23.708,23.708,0,0,0-8.74,32.355,23.707,23.707,0,0,0,32.355,8.741,23.707,23.707,0,0,0,8.741-32.355,23.709,23.709,0,0,0-32.356-8.741" transform="translate(-56.25 1012.496)" fill="#0063aa" fill-rule="evenodd"/>
        <path id="path2802" d="M38.667-1038.3a23.707,23.707,0,0,1,32.355,8.74,23.707,23.707,0,0,1-8.74,32.355,23.707,23.707,0,0,1-32.355-8.74,23.707,23.707,0,0,1,8.74-32.355l-.119-.13a23.834,23.834,0,0,0-8.786,32.528,23.833,23.833,0,0,0,32.526,8.786,23.834,23.834,0,0,0,8.787-32.526,23.835,23.835,0,0,0-32.527-8.787" transform="translate(-56.25 1012.496)" fill="#0063aa" fill-rule="evenodd"/>
        <path id="path2804" d="M38.53-1038.406a23.832,23.832,0,0,1,32.526,8.786,23.832,23.832,0,0,1-8.786,32.526,23.832,23.832,0,0,1-32.526-8.786,23.832,23.832,0,0,1,8.786-32.526l-.044-.13a23.959,23.959,0,0,0-8.832,32.7,23.958,23.958,0,0,0,32.7,8.834,23.958,23.958,0,0,0,8.834-32.7,23.96,23.96,0,0,0-32.7-8.834" transform="translate(-56.25 1012.496)" fill="#0063a9" fill-rule="evenodd"/>
        <path id="path2806" d="M38.467-1038.515a23.957,23.957,0,0,1,32.7,8.833,23.957,23.957,0,0,1-8.833,32.7,23.958,23.958,0,0,1-32.7-8.833,23.957,23.957,0,0,1,8.832-32.7l-.044-.13a24.085,24.085,0,0,0-8.879,32.87A24.084,24.084,0,0,0,62.414-996.9a24.085,24.085,0,0,0,8.88-32.869,24.086,24.086,0,0,0-32.87-8.88" transform="translate(-56.25 1012.496)" fill="#0062a9" fill-rule="evenodd"/>
        <path id="path2808" d="M38.405-1038.7a24.083,24.083,0,0,1,32.869,8.879A24.083,24.083,0,0,1,62.4-996.951a24.083,24.083,0,0,1-32.869-8.879,24.083,24.083,0,0,1,8.879-32.869l-.044-.054a24.208,24.208,0,0,0-8.925,33.039,24.21,24.21,0,0,0,33.04,8.926,24.21,24.21,0,0,0,8.926-33.04,24.21,24.21,0,0,0-33.041-8.925" transform="translate(-56.25 1012.496)" fill="#0062a8" fill-rule="evenodd"/>
        <path id="path2810" d="M38.342-1038.733a24.208,24.208,0,0,1,33.04,8.925,24.208,24.208,0,0,1-8.925,33.04,24.208,24.208,0,0,1-33.04-8.925,24.208,24.208,0,0,1,8.925-33.04l-.042-.129a24.333,24.333,0,0,0-8.972,33.21,24.335,24.335,0,0,0,33.211,8.972,24.335,24.335,0,0,0,8.972-33.211,24.334,24.334,0,0,0-33.211-8.971" transform="translate(-56.25 1012.496)" fill="#0061a8" fill-rule="evenodd"/>
        <path id="path2812" d="M38.28-1038.841a24.334,24.334,0,0,1,33.211,8.971,24.334,24.334,0,0,1-8.971,33.211,24.334,24.334,0,0,1-33.211-8.971,24.335,24.335,0,0,1,8.971-33.211l-.042-.129a24.458,24.458,0,0,0-9.019,33.381A24.461,24.461,0,0,0,62.6-996.57a24.461,24.461,0,0,0,9.019-33.383,24.459,24.459,0,0,0-33.383-9.017" transform="translate(-56.25 1012.496)" fill="#0061a8" fill-rule="evenodd"/>
        <path id="path2814" d="M38.292-1038.95a24.459,24.459,0,0,1,33.383,9.017,24.46,24.46,0,0,1-9.018,33.383,24.459,24.459,0,0,1-33.383-9.018,24.459,24.459,0,0,1,9.017-33.382l-.117-.129a24.585,24.585,0,0,0-9.065,33.552,24.586,24.586,0,0,0,33.554,9.065,24.585,24.585,0,0,0,9.064-33.554,24.583,24.583,0,0,0-33.552-9.064" transform="translate(-56.25 1012.496)" fill="#0061a8" fill-rule="evenodd"/>
        <path id="path2816" d="M38.155-1039.059a24.586,24.586,0,0,1,33.554,9.064,24.586,24.586,0,0,1-9.064,33.554,24.586,24.586,0,0,1-33.554-9.064,24.586,24.586,0,0,1,9.064-33.554l-.042-.129A24.709,24.709,0,0,0,29-1005.464a24.711,24.711,0,0,0,33.725,9.111,24.711,24.711,0,0,0,9.11-33.725,24.709,24.709,0,0,0-33.724-9.11" transform="translate(-56.25 1012.496)" fill="#0060a7" fill-rule="evenodd"/>
        <path id="path2818" d="M38.093-1039.167a24.711,24.711,0,0,1,33.725,9.11,24.711,24.711,0,0,1-9.11,33.725,24.711,24.711,0,0,1-33.725-9.11,24.711,24.711,0,0,1,9.11-33.725l-.043-.129a24.836,24.836,0,0,0-9.157,33.9,24.838,24.838,0,0,0,33.9,9.157,24.836,24.836,0,0,0,9.156-33.9,24.834,24.834,0,0,0-33.9-9.156" transform="translate(-56.25 1012.496)" fill="#0060a7" fill-rule="evenodd"/>
        <path id="path2820" d="M38.03-1039.351a24.837,24.837,0,0,1,33.9,9.156,24.836,24.836,0,0,1-9.156,33.9,24.837,24.837,0,0,1-33.9-9.156,24.836,24.836,0,0,1,9.156-33.9l-.042-.054a24.961,24.961,0,0,0-9.2,34.066,24.962,24.962,0,0,0,34.067,9.2,24.962,24.962,0,0,0,9.2-34.067,24.961,24.961,0,0,0-34.066-9.2" transform="translate(-56.25 1012.496)" fill="#005fa6" fill-rule="evenodd"/>
        <path id="path2822" d="M37.967-1039.385a24.962,24.962,0,0,1,34.067,9.2,24.962,24.962,0,0,1-9.2,34.067,24.962,24.962,0,0,1-34.067-9.2,24.962,24.962,0,0,1,9.2-34.068l-.042-.129a25.087,25.087,0,0,0-9.25,34.238,25.089,25.089,0,0,0,34.239,9.25,25.087,25.087,0,0,0,9.249-34.239,25.085,25.085,0,0,0-34.237-9.249" transform="translate(-56.25 1012.496)" fill="#005fa6" fill-rule="evenodd"/>
        <path id="path2824" d="M37.9-1039.494a25.087,25.087,0,0,1,34.239,9.249A25.087,25.087,0,0,1,62.9-996.006a25.087,25.087,0,0,1-34.239-9.249,25.086,25.086,0,0,1,9.249-34.239l-.042-.129a25.212,25.212,0,0,0-9.3,34.409,25.214,25.214,0,0,0,34.41,9.3,25.212,25.212,0,0,0,9.3-34.41,25.212,25.212,0,0,0-34.409-9.3" transform="translate(-56.25 1012.496)" fill="#005fa6" fill-rule="evenodd"/>
        <path id="path2826" d="M37.917-1039.6a25.213,25.213,0,0,1,34.41,9.3,25.213,25.213,0,0,1-9.3,34.41,25.213,25.213,0,0,1-34.41-9.295,25.213,25.213,0,0,1,9.295-34.41l-.118-.129a25.338,25.338,0,0,0-9.342,34.58,25.34,25.34,0,0,0,34.581,9.343,25.338,25.338,0,0,0,9.341-34.581,25.337,25.337,0,0,0-34.58-9.341" transform="translate(-56.25 1012.496)" fill="#005ea5" fill-rule="evenodd"/>
        <path id="path2828" d="M37.78-1039.711a25.338,25.338,0,0,1,34.581,9.341,25.339,25.339,0,0,1-9.341,34.581,25.338,25.338,0,0,1-34.581-9.341,25.338,25.338,0,0,1,9.341-34.581l-.043-.129a25.463,25.463,0,0,0-9.389,34.751A25.465,25.465,0,0,0,63.1-995.7a25.464,25.464,0,0,0,9.388-34.752,25.462,25.462,0,0,0-34.751-9.387" transform="translate(-56.25 1012.496)" fill="#005ea5" fill-rule="evenodd"/>
        <path id="path2830" d="M37.717-1039.82a25.464,25.464,0,0,1,34.753,9.388,25.464,25.464,0,0,1-9.388,34.753,25.463,25.463,0,0,1-34.753-9.389,25.463,25.463,0,0,1,9.387-34.751l-.042-.129a25.588,25.588,0,0,0-9.435,34.922,25.59,25.59,0,0,0,34.924,9.435,25.59,25.59,0,0,0,9.434-34.924,25.588,25.588,0,0,0-34.922-9.434" transform="translate(-56.25 1012.496)" fill="#005da4" fill-rule="evenodd"/>
        <path id="path2832" d="M37.655-1040a25.589,25.589,0,0,1,34.924,9.434,25.589,25.589,0,0,1-9.434,34.924,25.59,25.59,0,0,1-34.924-9.435A25.588,25.588,0,0,1,37.655-1040l-.042-.054a25.715,25.715,0,0,0-9.481,35.094,25.716,25.716,0,0,0,35.1,9.481,25.715,25.715,0,0,0,9.48-35.1,25.713,25.713,0,0,0-35.094-9.48" transform="translate(-56.25 1012.496)" fill="#005da4" fill-rule="evenodd"/>
        <path id="path2834" d="M37.592-1040.113a25.716,25.716,0,0,1,35.1,9.48,25.716,25.716,0,0,1-9.48,35.1,25.715,25.715,0,0,1-35.1-9.481,25.714,25.714,0,0,1,9.48-35.094l-.042-.054a25.84,25.84,0,0,0-9.528,35.265,25.841,25.841,0,0,0,35.266,9.527,25.841,25.841,0,0,0,9.526-35.266,25.839,25.839,0,0,0-35.265-9.526" transform="translate(-56.25 1012.496)" fill="#005ca3" fill-rule="evenodd"/>
        <path id="path2836" d="M37.53-1040.146a25.84,25.84,0,0,1,35.266,9.528,25.839,25.839,0,0,1-9.526,35.265A25.84,25.84,0,0,1,28-1004.881a25.839,25.839,0,0,1,9.526-35.265l-.042-.129a25.966,25.966,0,0,0-9.574,35.436,25.967,25.967,0,0,0,35.438,9.574,25.966,25.966,0,0,0,9.573-35.438,25.964,25.964,0,0,0-35.436-9.573" transform="translate(-56.25 1012.496)" fill="#005ca3" fill-rule="evenodd"/>
        <path id="path2838" d="M37.544-1040.255a25.964,25.964,0,0,1,35.436,9.574,25.964,25.964,0,0,1-9.574,35.436,25.965,25.965,0,0,1-35.436-9.574,25.964,25.964,0,0,1,9.574-35.436l-.119-.129a26.091,26.091,0,0,0-9.62,35.608,26.093,26.093,0,0,0,35.609,9.62,26.092,26.092,0,0,0,9.619-35.609,26.09,26.09,0,0,0-35.608-9.619" transform="translate(-56.25 1012.496)" fill="#005ca3" fill-rule="evenodd"/>
        <path id="path2840" d="M37.481-1040.364a26.09,26.09,0,0,1,35.608,9.62,26.09,26.09,0,0,1-9.62,35.607,26.09,26.09,0,0,1-35.608-9.62,26.09,26.09,0,0,1,9.62-35.608l-.119-.129a26.217,26.217,0,0,0-9.666,35.779,26.217,26.217,0,0,0,35.78,9.665,26.215,26.215,0,0,0,9.665-35.779,26.216,26.216,0,0,0-35.779-9.665" transform="translate(-56.25 1012.496)" fill="#005ba3" fill-rule="evenodd"/>
        <path id="path2842" d="M37.344-1040.473a26.215,26.215,0,0,1,35.779,9.666,26.215,26.215,0,0,1-9.666,35.779,26.215,26.215,0,0,1-35.779-9.666,26.215,26.215,0,0,1,9.666-35.779l-.044-.129a26.342,26.342,0,0,0-9.712,35.95,26.342,26.342,0,0,0,35.951,9.711,26.341,26.341,0,0,0,9.711-35.95A26.341,26.341,0,0,0,37.3-1040.6" transform="translate(-56.25 1012.496)" fill="#005aa2" fill-rule="evenodd"/>
        <path id="path2844" d="M37.281-1040.656a26.341,26.341,0,0,1,35.95,9.713,26.341,26.341,0,0,1-9.712,35.95,26.341,26.341,0,0,1-35.95-9.713,26.341,26.341,0,0,1,9.712-35.95l-.044-.054a26.466,26.466,0,0,0-9.758,36.121A26.467,26.467,0,0,0,63.6-994.831a26.467,26.467,0,0,0,9.757-36.121,26.467,26.467,0,0,0-36.121-9.757" transform="translate(-56.25 1012.496)" fill="#005aa1" fill-rule="evenodd"/>
        <path id="path2846" d="M37.219-1040.765a26.466,26.466,0,0,1,36.121,9.759,26.466,26.466,0,0,1-9.759,36.121,26.467,26.467,0,0,1-36.121-9.759,26.466,26.466,0,0,1,9.759-36.121l-.044-.054a26.592,26.592,0,0,0-9.8,36.293,26.592,26.592,0,0,0,36.292,9.8,26.591,26.591,0,0,0,9.8-36.293,26.592,26.592,0,0,0-36.292-9.8" transform="translate(-56.25 1012.496)" fill="#005aa1" fill-rule="evenodd"/>
        <path id="path2848" d="M37.156-1040.8a26.592,26.592,0,0,1,36.292,9.8,26.592,26.592,0,0,1-9.8,36.293,26.594,26.594,0,0,1-36.293-9.8,26.592,26.592,0,0,1,9.805-36.293l-.044-.129a26.717,26.717,0,0,0-9.85,36.464,26.717,26.717,0,0,0,36.464,9.85,26.718,26.718,0,0,0,9.85-36.464,26.718,26.718,0,0,0-36.464-9.85" transform="translate(-56.25 1012.496)" fill="#0059a1" fill-rule="evenodd"/>
        <path id="path2850" d="M37.169-1040.908a26.718,26.718,0,0,1,36.464,9.851,26.718,26.718,0,0,1-9.851,36.464,26.718,26.718,0,0,1-36.464-9.851,26.718,26.718,0,0,1,9.851-36.464l-.119-.129a26.843,26.843,0,0,0-9.9,36.635,26.843,26.843,0,0,0,36.635,9.9,26.843,26.843,0,0,0,9.9-36.635,26.843,26.843,0,0,0-36.635-9.9" transform="translate(-56.25 1012.496)" fill="#0058a0" fill-rule="evenodd"/>
        <path id="path2852" d="M37.106-1041.016a26.844,26.844,0,0,1,36.635,9.9,26.843,26.843,0,0,1-9.9,36.635,26.845,26.845,0,0,1-36.635-9.9,26.843,26.843,0,0,1,9.9-36.635l-.119-.129a26.968,26.968,0,0,0-9.942,36.806A26.968,26.968,0,0,0,63.851-994.4a26.969,26.969,0,0,0,9.942-36.806,26.969,26.969,0,0,0-36.806-9.943" transform="translate(-56.25 1012.496)" fill="#0058a0" fill-rule="evenodd"/>
        <path id="path2854" d="M36.969-1041.125a26.969,26.969,0,0,1,36.806,9.944,26.969,26.969,0,0,1-9.944,36.806,26.97,26.97,0,0,1-36.806-9.944,26.969,26.969,0,0,1,9.944-36.806l-.044-.129a27.1,27.1,0,0,0-9.989,36.978,27.094,27.094,0,0,0,36.978,9.989,27.094,27.094,0,0,0,9.989-36.978,27.094,27.094,0,0,0-36.978-9.989" transform="translate(-56.25 1012.496)" fill="#00589f" fill-rule="evenodd"/>
        <path id="path2856" d="M36.906-1041.309a27.1,27.1,0,0,1,36.978,9.99,27.094,27.094,0,0,1-9.99,36.977,27.1,27.1,0,0,1-36.978-9.99,27.094,27.094,0,0,1,9.99-36.977l-.044-.054a27.22,27.22,0,0,0-10.035,37.149,27.219,27.219,0,0,0,37.149,10.035,27.219,27.219,0,0,0,10.035-37.149,27.221,27.221,0,0,0-37.149-10.035" transform="translate(-56.25 1012.496)" fill="#00589f" fill-rule="evenodd"/>
        <path id="path2858" d="M36.844-1041.417a27.221,27.221,0,0,1,37.149,10.036,27.22,27.22,0,0,1-10.036,37.149,27.221,27.221,0,0,1-37.149-10.036,27.22,27.22,0,0,1,10.036-37.149l-.044-.054a27.344,27.344,0,0,0-10.081,37.32,27.345,27.345,0,0,0,37.32,10.081,27.344,27.344,0,0,0,10.081-37.319,27.345,27.345,0,0,0-37.32-10.082" transform="translate(-56.25 1012.496)" fill="#00579f" fill-rule="evenodd"/>
        <path id="path2860" d="M36.781-1041.451a27.345,27.345,0,0,1,37.32,10.083A27.343,27.343,0,0,1,64.019-994.05a27.345,27.345,0,0,1-37.32-10.081,27.345,27.345,0,0,1,10.083-37.32l-.044-.129a27.471,27.471,0,0,0-10.127,37.491A27.47,27.47,0,0,0,64.1-993.961a27.469,27.469,0,0,0,10.128-37.49,27.47,27.47,0,0,0-37.491-10.129" transform="translate(-56.25 1012.496)" fill="#00569e" fill-rule="evenodd"/>
        <path id="path2862" d="M36.794-1041.56a27.472,27.472,0,0,1,37.491,10.129A27.471,27.471,0,0,1,64.156-993.94a27.472,27.472,0,0,1-37.491-10.129,27.471,27.471,0,0,1,10.129-37.491l-.119-.129A27.6,27.6,0,0,0,26.5-1004.026a27.6,27.6,0,0,0,37.662,10.174,27.6,27.6,0,0,0,10.174-37.661,27.6,27.6,0,0,0-37.663-10.175" transform="translate(-56.25 1012.496)" fill="#00569e" fill-rule="evenodd"/>
        <path id="path2864" d="M36.731-1041.669a27.6,27.6,0,0,1,37.663,10.175,27.6,27.6,0,0,1-10.175,37.661,27.6,27.6,0,0,1-37.662-10.174,27.6,27.6,0,0,1,10.175-37.663l-.119-.129a27.722,27.722,0,0,0-10.22,37.834,27.722,27.722,0,0,0,37.834,10.22,27.72,27.72,0,0,0,10.22-37.832A27.721,27.721,0,0,0,36.613-1041.8" transform="translate(-56.25 1012.496)" fill="#00569e" fill-rule="evenodd"/>
        <path id="path2866" d="M36.594-1041.778a27.724,27.724,0,0,1,37.834,10.221,27.721,27.721,0,0,1-10.221,37.833,27.722,27.722,0,0,1-37.834-10.22,27.721,27.721,0,0,1,10.221-37.834l-.044-.129A27.847,27.847,0,0,0,26.284-1003.9a27.845,27.845,0,0,0,38,10.266,27.846,27.846,0,0,0,10.268-38,27.848,27.848,0,0,0-38.005-10.268" transform="translate(-56.25 1012.496)" fill="#00559d" fill-rule="evenodd"/>
        <path id="path2868" d="M36.531-1041.96a27.847,27.847,0,0,1,38.005,10.266,27.847,27.847,0,0,1-10.268,38,27.847,27.847,0,0,1-38.005-10.266,27.846,27.846,0,0,1,10.267-38l-.044-.055a27.973,27.973,0,0,0-10.312,38.176A27.972,27.972,0,0,0,64.35-993.526,27.971,27.971,0,0,0,74.664-1031.7a27.973,27.973,0,0,0-38.176-10.314" transform="translate(-56.25 1012.496)" fill="#00549d" fill-rule="evenodd"/>
        <path id="path2870" d="M36.469-1042.07a27.972,27.972,0,0,1,38.175,10.314,27.971,27.971,0,0,1-10.312,38.175,27.973,27.973,0,0,1-38.176-10.312,27.974,27.974,0,0,1,10.314-38.176l-.044-.054a28.1,28.1,0,0,0-10.359,38.348,28.1,28.1,0,0,0,38.346,10.359,28.1,28.1,0,0,0,10.36-38.346,28.1,28.1,0,0,0-38.347-10.36" transform="translate(-56.25 1012.496)" fill="#00549c" fill-rule="evenodd"/>
        <path id="path2872" d="M36.406-1042.1a28.1,28.1,0,0,1,38.346,10.359A28.1,28.1,0,0,1,64.394-993.4a28.1,28.1,0,0,1-38.348-10.359,28.1,28.1,0,0,1,10.36-38.346l-.044-.13a28.224,28.224,0,0,0-10.4,38.519,28.223,28.223,0,0,0,38.518,10.405,28.222,28.222,0,0,0,10.406-38.518,28.224,28.224,0,0,0-38.519-10.406" transform="translate(-56.25 1012.496)" fill="#00539c" fill-rule="evenodd"/>
        <path id="path2874" d="M36.419-1042.211a28.222,28.222,0,0,1,38.517,10.4,28.222,28.222,0,0,1-10.4,38.518,28.222,28.222,0,0,1-38.517-10.405,28.222,28.222,0,0,1,10.4-38.517l-.119-.13a28.349,28.349,0,0,0-10.451,38.69A28.348,28.348,0,0,0,64.537-993.2a28.347,28.347,0,0,0,10.452-38.689,28.348,28.348,0,0,0-38.69-10.453" transform="translate(-56.25 1012.496)" fill="#00539b" fill-rule="evenodd"/>
        <path id="path2876" d="M36.356-1042.32a28.348,28.348,0,0,1,38.689,10.451A28.348,28.348,0,0,1,64.594-993.18a28.348,28.348,0,0,1-38.689-10.451,28.348,28.348,0,0,1,10.451-38.689l-.119-.13a28.475,28.475,0,0,0-10.5,38.861,28.474,28.474,0,0,0,38.86,10.5,28.473,28.473,0,0,0,10.5-38.86,28.475,28.475,0,0,0-38.861-10.5" transform="translate(-56.25 1012.496)" fill="#00529b" fill-rule="evenodd"/>
        <path id="path2878" d="M36.219-1042.429a28.473,28.473,0,0,1,38.86,10.5,28.473,28.473,0,0,1-10.5,38.86,28.473,28.473,0,0,1-38.86-10.5,28.473,28.473,0,0,1,10.5-38.86l-.044-.13a28.6,28.6,0,0,0-10.544,39.033,28.6,28.6,0,0,0,39.031,10.544,28.6,28.6,0,0,0,10.545-39.031,28.6,28.6,0,0,0-39.033-10.545" transform="translate(-56.25 1012.496)" fill="#00529b" fill-rule="evenodd"/>
        <path id="path2880" d="M36.156-1042.613a28.6,28.6,0,0,1,39.031,10.544,28.6,28.6,0,0,1-10.544,39.031,28.6,28.6,0,0,1-39.031-10.544,28.6,28.6,0,0,1,10.544-39.031l-.044-.055a28.726,28.726,0,0,0-10.59,39.2,28.724,28.724,0,0,0,39.2,10.59,28.725,28.725,0,0,0,10.591-39.2,28.726,28.726,0,0,0-39.2-10.591" transform="translate(-56.25 1012.496)" fill="#00519a" fill-rule="evenodd"/>
        <path id="path2882" d="M36.094-1042.721a28.724,28.724,0,0,1,39.2,10.59,28.724,28.724,0,0,1-10.59,39.2,28.724,28.724,0,0,1-39.2-10.59,28.724,28.724,0,0,1,10.59-39.2l-.044-.055A28.852,28.852,0,0,0,25.414-1003.4a28.85,28.85,0,0,0,39.374,10.636,28.85,28.85,0,0,0,10.637-39.374,28.851,28.851,0,0,0-39.375-10.638" transform="translate(-56.25 1012.496)" fill="#00519a" fill-rule="evenodd"/>
        <path id="path2884" d="M36.031-1042.755A28.85,28.85,0,0,1,75.4-1032.119a28.849,28.849,0,0,1-10.636,39.374A28.851,28.851,0,0,1,25.4-1003.381a28.849,28.849,0,0,1,10.636-39.374l-.044-.13a28.977,28.977,0,0,0-10.683,39.546A28.976,28.976,0,0,0,64.85-992.656,28.976,28.976,0,0,0,75.534-1032.2a28.977,28.977,0,0,0-39.546-10.684" transform="translate(-56.25 1012.496)" fill="#005099" fill-rule="evenodd"/>
        <path id="path2886" d="M36.044-1042.864a28.976,28.976,0,0,1,39.545,10.682,28.976,28.976,0,0,1-10.683,39.545,28.976,28.976,0,0,1-39.545-10.682,28.976,28.976,0,0,1,10.682-39.545l-.119-.13A29.1,29.1,0,0,0,25.2-1003.276a29.1,29.1,0,0,0,39.716,10.729,29.1,29.1,0,0,0,10.73-39.716,29.1,29.1,0,0,0-39.718-10.73" transform="translate(-56.25 1012.496)" fill="#005099" fill-rule="evenodd"/>
        <path id="path2888" d="M35.981-1042.973A29.1,29.1,0,0,1,75.7-1032.244a29.1,29.1,0,0,1-10.729,39.716,29.1,29.1,0,0,1-39.716-10.729,29.1,29.1,0,0,1,10.729-39.716l-.119-.129a29.227,29.227,0,0,0-10.775,39.888,29.227,29.227,0,0,0,39.887,10.775,29.226,29.226,0,0,0,10.776-39.888A29.227,29.227,0,0,0,35.862-1043.1" transform="translate(-56.25 1012.496)" fill="#004f99" fill-rule="evenodd"/>
        <path id="path2890" d="M35.844-1043.081a29.227,29.227,0,0,1,39.887,10.775,29.227,29.227,0,0,1-10.775,39.887,29.227,29.227,0,0,1-39.888-10.775,29.227,29.227,0,0,1,10.775-39.888l-.044-.129a29.351,29.351,0,0,0-10.821,40.059A29.353,29.353,0,0,0,65.037-992.33a29.352,29.352,0,0,0,10.823-40.059A29.352,29.352,0,0,0,35.8-1043.21" transform="translate(-56.25 1012.496)" fill="#004f98" fill-rule="evenodd"/>
        <path id="path2892" d="M35.781-1043.265a29.352,29.352,0,0,1,40.059,10.821,29.351,29.351,0,0,1-10.821,40.059,29.351,29.351,0,0,1-40.059-10.821,29.352,29.352,0,0,1,10.821-40.059l-.044-.054a29.478,29.478,0,0,0-10.868,40.23A29.478,29.478,0,0,0,65.1-992.221a29.477,29.477,0,0,0,10.869-40.23,29.477,29.477,0,0,0-40.231-10.868" transform="translate(-56.25 1012.496)" fill="#004f98" fill-rule="evenodd"/>
        <path id="path2894" d="M35.719-1043.374a29.478,29.478,0,0,1,40.23,10.868,29.478,29.478,0,0,1-10.868,40.23,29.478,29.478,0,0,1-40.23-10.868,29.478,29.478,0,0,1,10.868-40.23l-.044-.054a29.6,29.6,0,0,0-10.914,40.4,29.6,29.6,0,0,0,40.4,10.915,29.6,29.6,0,0,0,10.914-40.4,29.6,29.6,0,0,0-40.4-10.914" transform="translate(-56.25 1012.496)" fill="#004e98" fill-rule="evenodd"/>
        <path id="path2896" d="M35.656-1043.407a29.6,29.6,0,0,1,40.4,10.914,29.6,29.6,0,0,1-10.914,40.4,29.6,29.6,0,0,1-40.4-10.914,29.6,29.6,0,0,1,10.914-40.4l-.044-.129a29.728,29.728,0,0,0-10.96,40.571A29.728,29.728,0,0,0,65.225-992a29.727,29.727,0,0,0,10.96-40.572,29.728,29.728,0,0,0-40.573-10.96" transform="translate(-56.25 1012.496)" fill="#004e97" fill-rule="evenodd"/>
        <path id="path2898" d="M35.669-1043.516a29.729,29.729,0,0,1,40.572,10.96,29.729,29.729,0,0,1-10.96,40.573,29.729,29.729,0,0,1-40.573-10.96,29.728,29.728,0,0,1,10.96-40.573l-.119-.129A29.853,29.853,0,0,0,24.544-1002.9,29.854,29.854,0,0,0,65.287-991.9a29.853,29.853,0,0,0,11.006-40.744,29.854,29.854,0,0,0-40.744-11.006" transform="translate(-56.25 1012.496)" fill="#004d96" fill-rule="evenodd"/>
        <path id="path2900" d="M35.606-1043.625a29.854,29.854,0,0,1,40.744,11.006,29.854,29.854,0,0,1-11.006,40.744A29.854,29.854,0,0,1,24.6-1002.881a29.854,29.854,0,0,1,11.006-40.744l-.118-.129a29.978,29.978,0,0,0-11.054,40.914A29.98,29.98,0,0,0,65.35-991.786,29.979,29.979,0,0,0,76.4-1032.7a29.978,29.978,0,0,0-40.914-11.052" transform="translate(-56.25 1012.496)" fill="#004d96" fill-rule="evenodd"/>
        <path id="path2902" d="M35.469-1043.734a29.979,29.979,0,0,1,40.915,11.052,29.979,29.979,0,0,1-11.052,40.915,29.98,29.98,0,0,1-40.915-11.052,29.979,29.979,0,0,1,11.052-40.915l-.042-.129a30.1,30.1,0,0,0-11.1,41.085,30.1,30.1,0,0,0,41.086,11.1,30.1,30.1,0,0,0,11.1-41.086,30.1,30.1,0,0,0-41.085-11.1" transform="translate(-56.25 1012.496)" fill="#004c96" fill-rule="evenodd"/>
        <path id="path2904" d="M35.406-1043.917a30.105,30.105,0,0,1,41.086,11.1,30.105,30.105,0,0,1-11.1,41.086,30.105,30.105,0,0,1-41.086-11.1,30.105,30.105,0,0,1,11.1-41.086l-.042-.054a30.229,30.229,0,0,0-11.146,41.256,30.231,30.231,0,0,0,41.257,11.146,30.23,30.23,0,0,0,11.145-41.257,30.229,30.229,0,0,0-41.256-11.145" transform="translate(-56.25 1012.496)" fill="#004b95" fill-rule="evenodd"/>
        <path id="path2906" d="M35.344-1044.026A30.23,30.23,0,0,1,76.6-1032.881a30.23,30.23,0,0,1-11.145,41.258A30.23,30.23,0,0,1,24.2-1002.769a30.231,30.231,0,0,1,11.145-41.258l-.042-.054a30.355,30.355,0,0,0-11.192,41.427A30.356,30.356,0,0,0,65.537-991.46a30.355,30.355,0,0,0,11.191-41.429A30.354,30.354,0,0,0,35.3-1044.08" transform="translate(-56.25 1012.496)" fill="#004b95" fill-rule="evenodd"/>
        <path id="path2908" d="M35.281-1044.06a30.356,30.356,0,0,1,41.429,11.191A30.356,30.356,0,0,1,65.519-991.44a30.357,30.357,0,0,1-41.429-11.191,30.356,30.356,0,0,1,11.191-41.429l-.042-.129A30.48,30.48,0,0,0,24-1002.59a30.482,30.482,0,0,0,41.6,11.239,30.481,30.481,0,0,0,11.238-41.6,30.48,30.48,0,0,0-41.6-11.237" transform="translate(-56.25 1012.496)" fill="#004b94" fill-rule="evenodd"/>
        <path id="path2910" d="M35.219-1044.169a30.482,30.482,0,0,1,41.6,11.238,30.481,30.481,0,0,1-11.238,41.6,30.482,30.482,0,0,1-41.6-11.237,30.482,30.482,0,0,1,11.238-41.6l-.042-.129a30.606,30.606,0,0,0-11.285,41.77,30.607,30.607,0,0,0,41.771,11.285,30.606,30.606,0,0,0,11.284-41.771,30.605,30.605,0,0,0-41.77-11.284" transform="translate(-56.25 1012.496)" fill="#004a94" fill-rule="evenodd"/>
        <path id="path2912" d="M35.231-1044.278A30.608,30.608,0,0,1,77-1032.994a30.608,30.608,0,0,1-11.284,41.771,30.608,30.608,0,0,1-41.771-11.284,30.608,30.608,0,0,1,11.284-41.771l-.118-.129a30.731,30.731,0,0,0-11.331,41.941,30.732,30.732,0,0,0,41.943,11.331,30.732,30.732,0,0,0,11.33-41.943,30.732,30.732,0,0,0-41.941-11.33" transform="translate(-56.25 1012.496)" fill="#004993" fill-rule="evenodd"/>
        <path id="path2914" d="M35.094-1044.386a30.733,30.733,0,0,1,41.943,11.33,30.733,30.733,0,0,1-11.33,41.943,30.733,30.733,0,0,1-41.942-11.33,30.733,30.733,0,0,1,11.33-41.943l-.042-.129A30.857,30.857,0,0,0,23.674-1002.4a30.858,30.858,0,0,0,42.114,11.377,30.857,30.857,0,0,0,11.376-42.114,30.856,30.856,0,0,0-42.112-11.376" transform="translate(-56.25 1012.496)" fill="#004893" fill-rule="evenodd"/>
        <path id="path2916" d="M35.031-1044.495a30.858,30.858,0,0,1,42.114,11.376,30.858,30.858,0,0,1-11.376,42.114,30.859,30.859,0,0,1-42.114-11.376,30.858,30.858,0,0,1,11.376-42.114l-.042-.129a30.982,30.982,0,0,0-11.424,42.284A30.984,30.984,0,0,0,65.85-990.916,30.983,30.983,0,0,0,77.272-1033.2a30.983,30.983,0,0,0-42.284-11.423" transform="translate(-56.25 1012.496)" fill="#004892" fill-rule="evenodd"/>
        <path id="path2918" d="M34.969-1044.679a30.984,30.984,0,0,1,42.285,11.422,30.984,30.984,0,0,1-11.423,42.285A30.983,30.983,0,0,1,23.546-1002.4a30.983,30.983,0,0,1,11.423-42.284l-.042-.054a31.108,31.108,0,0,0-11.47,42.455,31.11,31.11,0,0,0,42.456,11.47,31.108,31.108,0,0,0,11.469-42.456,31.108,31.108,0,0,0-42.455-11.469" transform="translate(-56.25 1012.496)" fill="#004792" fill-rule="evenodd"/>
        <path id="path2920" d="M34.906-1044.712a31.109,31.109,0,0,1,42.456,11.469,31.109,31.109,0,0,1-11.469,42.456,31.108,31.108,0,0,1-42.456-11.47,31.108,31.108,0,0,1,11.469-42.455l-.042-.129a31.233,31.233,0,0,0-11.516,42.626A31.233,31.233,0,0,0,65.975-990.7a31.232,31.232,0,0,0,11.515-42.626,31.234,31.234,0,0,0-42.626-11.515" transform="translate(-56.25 1012.496)" fill="#004692" fill-rule="evenodd"/>
        <path id="path2922" d="M34.844-1044.821a31.235,31.235,0,0,1,42.628,11.515,31.235,31.235,0,0,1-11.515,42.627,31.236,31.236,0,0,1-42.628-11.515,31.235,31.235,0,0,1,11.515-42.627l-.042-.129a31.358,31.358,0,0,0-11.563,42.8,31.359,31.359,0,0,0,42.8,11.561,31.359,31.359,0,0,0,11.561-42.8,31.359,31.359,0,0,0-42.8-11.561" transform="translate(-56.25 1012.496)" fill="#004691" fill-rule="evenodd"/>
        <path id="path2924" d="M34.856-1044.93a31.36,31.36,0,0,1,42.8,11.561,31.36,31.36,0,0,1-11.561,42.8,31.36,31.36,0,0,1-42.8-11.562,31.359,31.359,0,0,1,11.561-42.8l-.118-.129a31.483,31.483,0,0,0-11.608,42.969A31.483,31.483,0,0,0,66.1-990.482a31.484,31.484,0,0,0,11.608-42.969,31.484,31.484,0,0,0-42.969-11.608" transform="translate(-56.25 1012.496)" fill="#004691" fill-rule="evenodd"/>
        <path id="path2926" d="M34.719-1045.039a31.487,31.487,0,0,1,42.97,11.608,31.486,31.486,0,0,1-11.607,42.97,31.486,31.486,0,0,1-42.97-11.609,31.485,31.485,0,0,1,11.608-42.969l-.042-.129a31.608,31.608,0,0,0-11.654,43.14,31.608,31.608,0,0,0,43.14,11.654,31.61,31.61,0,0,0,11.654-43.14,31.61,31.61,0,0,0-43.14-11.654" transform="translate(-56.25 1012.496)" fill="#004590" fill-rule="evenodd"/>
        <path id="path2928" d="M34.656-1045.147A31.611,31.611,0,0,1,77.8-1033.492a31.61,31.61,0,0,1-11.654,43.14A31.611,31.611,0,0,1,23-1002.008a31.61,31.61,0,0,1,11.654-43.14l-.042-.129a31.734,31.734,0,0,0-11.7,43.311,31.734,31.734,0,0,0,43.311,11.7,31.735,31.735,0,0,0,11.7-43.311,31.735,31.735,0,0,0-43.311-11.7" transform="translate(-56.25 1012.496)" fill="#004490" fill-rule="evenodd"/>
        <path id="path2930" d="M34.594-1045.331a31.737,31.737,0,0,1,43.313,11.7,31.735,31.735,0,0,1-11.7,43.311,31.736,31.736,0,0,1-43.311-11.7,31.735,31.735,0,0,1,11.7-43.311l-.042-.054A31.859,31.859,0,0,0,22.805-1001.9a31.859,31.859,0,0,0,43.482,11.746,31.861,31.861,0,0,0,11.746-43.482,31.862,31.862,0,0,0-43.482-11.746" transform="translate(-56.25 1012.496)" fill="#00448f" fill-rule="evenodd"/>
        <path id="path2932" d="M34.533-1045.365a31.861,31.861,0,0,1,43.482,11.748,31.861,31.861,0,0,1-11.747,43.482,31.861,31.861,0,0,1-43.483-11.747,31.861,31.861,0,0,1,11.748-43.482l-.044-.129A31.985,31.985,0,0,0,22.7-1001.84,31.985,31.985,0,0,0,66.35-990.048,31.986,31.986,0,0,0,78.143-1033.7a31.986,31.986,0,0,0-43.654-11.792" transform="translate(-56.25 1012.496)" fill="#00438f" fill-rule="evenodd"/>
        <path id="path2934" d="M34.47-1045.474a31.986,31.986,0,0,1,43.654,11.794A31.986,31.986,0,0,1,66.33-990.026a31.987,31.987,0,0,1-43.654-11.794,31.986,31.986,0,0,1,11.794-43.654l-.044-.129a32.11,32.11,0,0,0-11.839,43.825,32.11,32.11,0,0,0,43.825,11.839,32.111,32.111,0,0,0,11.839-43.825A32.113,32.113,0,0,0,34.426-1045.6" transform="translate(-56.25 1012.496)" fill="#01428f" fill-rule="evenodd"/>
      </g>
    </g>
    <path id="path2936" d="M112.075-962.485l-10.638-24.324v24.324H95.72v-30.81h9.326l9.6,22.236v-22.236h5.674v30.81h-8.24" transform="translate(-2.512 0)" fill="#02428e"/>
    <path id="path2938" d="M139.606-974.229v11.744h-6.579v-11.744l-10.154-19.066h7.286l6.795,13.582,6.648-13.582h6.232l-10.229,19.066" transform="translate(-3.787 0)" fill="#02428e"/>
    <path id="path2940" d="M175.928-962.485v-30.81h18.6v4.365h-12.3v8.336h11.283v4.359H182.229v9.385h12.81v4.365H175.928" transform="translate(-5.834 0)" fill="#02428e"/>
    <path id="path2942" d="M160.257-962.1a26.147,26.147,0,0,1-8.994-1.528v-4.626a22.225,22.225,0,0,0,8.12,1.573c3.664-.086,5.274-1.351,5.329-3.881.056-2.369-1.6-3.129-6.356-5.468-4.553-2.242-7.509-4.018-7.577-8.886-.07-5.351,4.4-8.774,11.02-8.774a20.517,20.517,0,0,1,7.48,1.411v4.551a19.46,19.46,0,0,0-6.856-1.513c-3.234,0-5.274,1.034-5.315,3.361-.042,2.294,1.415,3.019,5.745,4.98,6.371,2.882,8.273,5.388,8.231,9.8-.056,5.025-3.914,8.89-10.826,9" transform="translate(-4.803 0)" fill="#02428e"/>
  </g>
</svg>
