<svg xmlns="http://www.w3.org/2000/svg" width="96.443" height="96.443" viewBox="0 0 96.443 96.443">
  <g id="trend" transform="translate(-2 -2)">
    <path id="Path_128" data-name="Path 128" d="M56.9,2a20.891,20.891,0,0,0-6.43,40.77v18.7a6.43,6.43,0,1,0,12.859,0V42.77A20.891,20.891,0,0,0,56.9,2Zm0,62.688a3.218,3.218,0,0,1-3.215-3.215V50.222h6.43V61.473A3.218,3.218,0,0,1,56.9,64.688Zm3.215-17.681h-6.43V43.519a19.047,19.047,0,0,0,6.43,0ZM56.9,40.577A17.681,17.681,0,1,1,74.577,22.9,17.7,17.7,0,0,1,56.9,40.577Z" transform="translate(20.651)" fill="#fff"/>
    <path id="Path_129" data-name="Path 129" d="M52.064,11.215A2.58,2.58,0,0,1,53.5,15.942l-2.958,1.972a1.609,1.609,0,0,0-.715,1.337v3.215h3.215V20.112l2.242-1.495A5.8,5.8,0,0,0,52.064,8H50.8A5.8,5.8,0,0,0,45,13.795h3.215a2.583,2.583,0,0,1,2.58-2.58Z" transform="translate(26.118 3.644)" fill="#fff"/>
    <path id="Path_130" data-name="Path 130" d="M48,19h3.215v3.215H48Z" transform="translate(27.94 10.326)" fill="#fff"/>
    <path id="Path_131" data-name="Path 131" d="M77.725,45V59.466H24.681a1.608,1.608,0,0,0-1.607,1.607v1.607a6.43,6.43,0,1,1-12.859,0V49.822H7V62.681a9.654,9.654,0,0,0,9.644,9.644H79.332A11.264,11.264,0,0,0,90.584,61.074a1.608,1.608,0,0,0-1.607-1.607H80.94V45Zm1.607,24.111H23.826a9.606,9.606,0,0,0,2.463-6.43H87.207a8.049,8.049,0,0,1-7.875,6.43Z" transform="translate(3.037 26.118)" fill="#fff"/>
    <path id="Path_132" data-name="Path 132" d="M3.607,5.215a6.436,6.436,0,0,1,6.43,6.43V58.258h3.215V11.644a9.606,9.606,0,0,0-2.463-6.43H63.081V2H3.607a1.607,1.607,0,1,0,0,3.215Z" fill="#fff"/>
    <path id="Path_133" data-name="Path 133" d="M64.96,26.457,54.943,41.939a4.731,4.731,0,0,0-1.114-.143,4.779,4.779,0,0,0-3.049,1.117l-16.336-9.8a4.822,4.822,0,1,0-9.548-.961,4.743,4.743,0,0,0,.484,2.065L10.9,48.7l.042.042a4.759,4.759,0,0,0-2.12-.513,4.822,4.822,0,1,0,4.822,4.822,4.759,4.759,0,0,0-.513-2.12l.042.042L27.653,36.49a4.693,4.693,0,0,0,5.115-.633l16.336,9.8a4.822,4.822,0,1,0,9.548.96,4.77,4.77,0,0,0-1.016-2.925L67.659,28.2ZM8.822,54.655a1.607,1.607,0,1,1,1.607-1.607A1.61,1.61,0,0,1,8.822,54.655Zm20.9-20.9a1.607,1.607,0,1,1,1.607-1.607A1.61,1.61,0,0,1,29.718,33.759ZM53.829,48.226a1.607,1.607,0,1,1,1.607-1.607A1.61,1.61,0,0,1,53.829,48.226Z" transform="translate(1.215 14.855)" fill="#fff"/>
    <path id="Path_134" data-name="Path 134" d="M13,10H45.148v3.215H13Z" transform="translate(6.681 4.859)" fill="#fff"/>
    <path id="Path_135" data-name="Path 135" d="M13,15H45.148v3.215H13Z" transform="translate(6.681 7.896)" fill="#fff"/>
    <path id="Path_136" data-name="Path 136" d="M13,20H45.148v3.215H13Z" transform="translate(6.681 10.933)" fill="#fff"/>
    <path id="Path_137" data-name="Path 137" d="M13,46H67.651v3.215H13Z" transform="translate(6.681 26.725)" fill="#fff"/>
    <path id="Path_138" data-name="Path 138" d="M49,5V8.215a12.859,12.859,0,1,1,0,25.718v3.215A16.074,16.074,0,0,0,49,5Z" transform="translate(28.547 1.822)" fill="#fff"/>
    <path id="Path_139" data-name="Path 139" d="M16,50h6.43v3.215H16Z" transform="translate(8.503 29.154)" fill="#fff"/>
    <path id="Path_140" data-name="Path 140" d="M28,50h6.43v3.215H28Z" transform="translate(15.792 29.154)" fill="#fff"/>
    <path id="Path_141" data-name="Path 141" d="M40,50h6.43v3.215H40Z" transform="translate(23.081 29.154)" fill="#fff"/>
  </g>
</svg>
