<svg xmlns="http://www.w3.org/2000/svg" xmlns:xlink="http://www.w3.org/1999/xlink" width="324.311" height="309.276" viewBox="0 0 324.311 309.276">
  <defs>
    <linearGradient id="linear-gradient" x1="0.099" y1="-0.385" x2="0.893" y2="0.768" gradientUnits="objectBoundingBox">
      <stop offset="0" stop-color="#c9e4f8"/>
      <stop offset="0.23" stop-color="#a6d2f3"/>
      <stop offset="0.68" stop-color="#0078d4"/>
      <stop offset="1" stop-color="#2a87ce"/>
    </linearGradient>
  </defs>
  <g id="cdevfeAsset_3" data-name="cdevfeAsset 3" transform="translate(0 0.018)">
    <g id="Layer_2" data-name="Layer 2" transform="translate(0 -0.018)">
      <g id="Ñëîé_1" data-name="Ñëîé 1">
        <g id="Group_14" data-name="Group 14" transform="translate(246.738 174.925)" opacity="0.3">
          <path id="Path_85" data-name="Path 85" d="M298.439,176.6v-7.03l-1.865-1.09c-.536,3.351-4.289,5.554-7.428,6.011L267.777,187.6l-9.327,3.515L228.682,175l.693-.422c-2.547-1.242-3.921-4.1-5.295-6.7l-1.955,1.207-1.2.352v7.276h0a4.678,4.678,0,0,0,2.625,3.832l29.824,18.068a13.468,13.468,0,0,0,12.667,0l29.8-18.068a4.675,4.675,0,0,0,2.614-3.761V176.6Z" transform="translate(-220.888 -146.074)" fill="url(#linear-gradient)"/>
          <path id="Path_86" data-name="Path 86" d="M285.088,174.329,263.719,187.44l-8.109,3.07v9.585a12.523,12.523,0,0,0,6.333-1.582l29.846-18.068a4.675,4.675,0,0,0,2.614-3.761V176.5h0v-7.03l-1.709-1h-.179C291.913,171.7,288.2,173.872,285.088,174.329Z" transform="translate(-216.83 -145.973)" opacity="0.3" fill="url(#linear-gradient)"/>
          <path id="Path_87" data-name="Path 87" d="M253.339,194.651l-29.824-18.068c-3.5-2.109-3.5-5.554,0-7.663l29.824-18.068a13.446,13.446,0,0,1,12.656,0l29.858,18.021c3.485,2.109,3.485,5.554,0,7.663l-29.846,18.115a13.468,13.468,0,0,1-12.667,0Z" transform="translate(-220.893 -149.27)" fill="url(#linear-gradient)"/>
          <g id="Group_13" data-name="Group 13" opacity="0.3">
            <path id="Path_88" data-name="Path 88" d="M253.339,194.651l-29.824-18.068c-3.5-2.109-3.5-5.554,0-7.663l29.824-18.068a13.446,13.446,0,0,1,12.656,0l29.858,18.021c3.485,2.109,3.485,5.554,0,7.663l-29.846,18.115a13.468,13.468,0,0,1-12.667,0Z" transform="translate(-220.893 -149.27)" fill="url(#linear-gradient)"/>
          </g>
        </g>
        <path id="Path_89" data-name="Path 89" d="M259.572,175.232a10.978,10.978,0,0,1-5.585-1.418l-29.824-18.056a3.837,3.837,0,0,1,0-7.124l29.824-18.068a11.948,11.948,0,0,1,11.248,0l29.824,18.068a3.837,3.837,0,0,1,0,7.124l-29.824,18.056a10.965,10.965,0,0,1-5.663,1.418Zm-5.362-1.886a11.37,11.37,0,0,0,10.712,0l29.824-18.068a3.3,3.3,0,0,0,0-6.175l-29.824-18.056a11.338,11.338,0,0,0-10.712,0L224.386,149.1a3.3,3.3,0,0,0,0,6.175Z" transform="translate(25.946 22.202)" fill="url(#linear-gradient)"/>
        <path id="Path_90" data-name="Path 90" d="M298.439,144.715v-10.71l-1.865-1.09c-.536,3.339-4.289,5.542-7.428,6l-21.368,13.112-9.327,3.515-29.768-16.1.693-.41c-2.547-1.254-3.921-4.1-5.295-6.7l-1.955,1.254-1.2.352v10.9h0a4.678,4.678,0,0,0,2.625,3.832l29.824,18.068a13.468,13.468,0,0,0,12.667,0l29.8-18.068a4.675,4.675,0,0,0,2.614-3.761v-.187Z" transform="translate(25.849 22.746)" opacity="0.4" fill="url(#linear-gradient)"/>
        <path id="Path_91" data-name="Path 91" d="M298.439,136.055v-7.089l-1.865-1.09c-.536,3.351-4.289,5.554-7.428,6.011L267.777,147l-9.327,3.515L228.682,134.4l.693-.41c-2.547-1.254-3.921-4.1-5.295-6.7l-1.955,1.265-1.2.352v7.265h0c0,1.394.871,2.777,2.625,3.832l29.824,18.068a13.468,13.468,0,0,0,12.667,0L295.847,140a4.675,4.675,0,0,0,2.614-3.761v-.187Z" transform="translate(25.849 21.881)" fill="url(#linear-gradient)"/>
        <path id="Path_92" data-name="Path 92" d="M285.088,133.787,263.719,146.9l-8.109,3.07v9.585a12.524,12.524,0,0,0,6.333-1.582L291.79,139.9a4.675,4.675,0,0,0,2.614-3.761v-.187h0v-7.089l-1.709-1h-.179C291.913,131.163,288.2,133.33,285.088,133.787Z" transform="translate(29.907 21.98)" opacity="0.3" fill="url(#linear-gradient)"/>
        <path id="Path_93" data-name="Path 93" d="M253.339,154.067l-29.824-18.056c-3.5-2.121-3.5-5.554,0-7.675l29.824-18.1a13.383,13.383,0,0,1,12.656,0l29.857,18.1c3.485,2.121,3.485,5.554,0,7.675l-29.824,18.056a13.4,13.4,0,0,1-12.689,0Z" transform="translate(25.845 18.678)" fill="url(#linear-gradient)"/>
        <path id="Path_94" data-name="Path 94" d="M258.714,149.461a9.783,9.783,0,0,1-4.948-1.242l-22.541-13.662a3.432,3.432,0,0,1,0-6.362l22.563-13.662a10.481,10.481,0,0,1,9.885,0l22.541,13.651a3.432,3.432,0,0,1,0,6.362l-22.6,13.674A9.773,9.773,0,0,1,258.714,149.461Zm0-35.539a9.16,9.16,0,0,0-4.636,1.172l-22.563,13.662a2.809,2.809,0,0,0,0,5.261l22.563,13.662a9.86,9.86,0,0,0,9.282,0l22.6-13.639a2.809,2.809,0,0,0,0-5.261l-22.564-13.662a9.172,9.172,0,0,0-4.691-1.2Z" transform="translate(26.803 19.477)" fill="url(#linear-gradient)"/>
        <path id="Path_95" data-name="Path 95" d="M295.852,132.5l-29.824,18.056a13.4,13.4,0,0,1-12.667,0L223.514,132.5a4.906,4.906,0,0,1-2.591-3.4c-.2,1.535.659,3.105,2.591,4.277l29.824,18.068a13.468,13.468,0,0,0,12.667,0l29.846-18.068c1.921-1.172,2.793-2.742,2.58-4.277A4.919,4.919,0,0,1,295.852,132.5Z" transform="translate(25.845 22.191)" fill="url(#linear-gradient)"/>
        <path id="Path_96" data-name="Path 96" d="M296.293,92.4l-16.755,10.135c-5.027,3.046-9.506,1.91-11.17-2.847L235.338,4.833c-3.775-10.838-19.224-1.043-22.485,14.26l-20.385,95.472c-1.486,7.03-6.1,13.932-11.326,17.1l-4.87,2.953c-4.725,2.859-9,2.039-10.857-2.1l-6.7-14.986c-4.178-9.292-18.107-.527-21.9,13.78h0c-1.754,6.6-6.144,12.889-11.036,15.877l-4.256,2.578c-5.149,3.117-9.718,1.84-11.271-3.175l-6.144-19.8c-3.463-11.178-18.989-1.875-22.508,13.522L61.152,228.692c-1.6,6.948-6.233,13.756-11.416,16.8L26.19,259.333Z" transform="translate(3.064 0.062)" opacity="0.5" fill="url(#linear-gradient)"/>
        <path id="Path_97" data-name="Path 97" d="M45.319,266.867l-.279-.516,20.218-11.87c5.149-3.035,9.7-9.714,11.293-16.627l20.385-88.372c2.513-10.874,10.623-18.431,16.621-18.666,3.105-.141,5.373,1.687,6.434,5.109l6.144,19.814a6.324,6.324,0,0,0,3.541,4.253c2.033.82,4.636.375,7.316-1.242l4.256-2.578c4.8-2.918,9.182-9.222,10.9-15.7,2.759-10.37,10.455-17.306,16.018-17.81a6.146,6.146,0,0,1,6.412,3.972l6.7,14.986a5.855,5.855,0,0,0,3.474,3.339c1.988.656,4.468.164,6.992-1.359l4.87-2.953c5.127-3.105,9.74-10.065,11.17-16.908l20.374-95.472C230.4,17.535,238.695,9.6,244.66,9.192c3.083-.2,5.384,1.488,6.534,4.769l33.086,94.91a6.159,6.159,0,0,0,3.53,3.972c2.022.773,4.591.316,7.227-1.277l13.058-7.909.29.5-12.98,7.921c-2.792,1.687-5.529,2.156-7.707,1.324a6.7,6.7,0,0,1-3.865-4.324l-33.1-94.91c-1.061-3.07-3.116-4.558-5.965-4.382-5.764.387-13.75,8.132-15.984,18.607l-20.374,95.461c-1.519,7.112-6.132,14.061-11.472,17.306l-4.859,2.941c-2.67,1.617-5.317,2.121-7.45,1.418a6.455,6.455,0,0,1-3.82-3.644l-6.7-14.986a5.558,5.558,0,0,0-5.864-3.632c-5.373.469-12.834,7.253-15.515,17.365-1.765,6.62-6.244,13.076-11.17,16.053l-4.256,2.578c-2.826,1.711-5.585,2.179-7.819,1.289a6.939,6.939,0,0,1-3.876-4.687l-6.144-19.8c-.994-3.2-3.016-4.863-5.875-4.687-5.674.223-13.683,7.769-16.1,18.209L77.087,238c-1.631,7.03-6.266,13.9-11.55,17Z" transform="translate(5.27 1.597)" fill="url(#linear-gradient)"/>
        <path id="Path_126" data-name="Path 126" d="M0,0,.579-.012.139,21.017l-.579.012Z" transform="translate(235.371 1.285) rotate(-60.11)" fill="url(#linear-gradient)"/>
        <path id="Path_98" data-name="Path 98" d="M160.718,109.12,142.5,98.094l.279-.5,18.229,11.026Z" transform="translate(16.673 16.78)" fill="url(#linear-gradient)"/>
        <path id="Path_127" data-name="Path 127" d="M0,0,.579-.012.116,22.158l-.579.012Z" transform="translate(103.465 122.659) rotate(-60.15)" fill="url(#linear-gradient)"/>
        <path id="Path_99" data-name="Path 99" d="M115.822,309.257a9.689,9.689,0,0,1-4.937-1.347L50.019,272.161a2.4,2.4,0,0,1,0-4.031l20.519-12.057c5.161-3.023,9.7-9.714,11.293-16.627l20.4-88.383A28.842,28.842,0,0,1,110.047,137l-3.116-10.053c-.994-3.211-3.038-4.839-5.887-4.687-5.686.223-13.706,7.769-16.118,18.232l-20.452,88.3c-1.631,7.03-6.266,13.885-11.55,16.99L.257,276.754,0,276.285,52.667,245.3c5.161-3.035,9.707-9.714,11.293-16.639l20.4-88.372c2.5-10.862,10.612-18.408,16.61-18.654,3.094-.141,5.35,1.687,6.412,5.1l3.038,9.831a14.125,14.125,0,0,1,8.422-4.16c3.083-.117,5.339,1.687,6.4,5.109l3.016,9.725.4-.246c4.8-2.918,9.193-9.233,10.913-15.713,2.748-10.358,10.444-17.295,16-17.787a6.1,6.1,0,0,1,6.4,3.96l4.524,10.065a13.52,13.52,0,0,1,6.948-3.257,6.124,6.124,0,0,1,6.4,3.96l2.055,4.57,2.178-1.324c5.138-3.105,9.751-10.065,11.17-16.92l20.374-95.472C217.95,8.358,226.182.437,232.147,0c3.049-.234,5.362,1.476,6.5,4.757l3.474,9.96a14.109,14.109,0,0,1,7.886-3.949c3.038-.211,5.373,1.476,6.512,4.757l29.534,84.657,11.315-6.855a3.9,3.9,0,0,1,4.066,0l12.443,7.5a2.81,2.81,0,0,1,0,4.769L300.7,113.59c-2.781,1.676-5.518,2.144-7.685,1.324a6.72,6.72,0,0,1-3.854-4.312l-3.351-9.6-2.982,1.8c-2.781,1.687-5.507,2.156-7.685,1.324a6.663,6.663,0,0,1-3.854-4.312l-29.4-84.154a28.26,28.26,0,0,0-7.819,14.3l-20.374,95.472c-1.519,7.112-6.121,14.061-11.46,17.283l-4.859,2.953c-2.67,1.605-5.306,2.109-7.428,1.418a6.411,6.411,0,0,1-3.809-3.644l-4.468-9.878-2.234,1.324c-2.658,1.617-5.306,2.121-7.428,1.418a6.387,6.387,0,0,1-3.809-3.632l-1.932-4.312a27.946,27.946,0,0,0-8.355,13.838c-1.754,6.609-6.244,13.065-11.17,16.041l-4.245,2.578c-2.826,1.711-5.585,2.168-7.819,1.277a6.83,6.83,0,0,1-3.854-4.6l-2.927-9.444-3.351,1.992c-2.826,1.711-5.585,2.168-7.819,1.289a6.865,6.865,0,0,1-3.865-4.617l-2.826-9.116a28.505,28.505,0,0,0-7.272,13.557L82.345,239.575c-1.631,7.03-6.278,13.885-11.55,16.978L50.265,268.61a1.813,1.813,0,0,0,0,3.07l60.877,35.749a9.155,9.155,0,0,0,9.55-.117l107.355-66.355.268.48L120.96,307.781A9.7,9.7,0,0,1,115.822,309.257ZM128.455,147.77l2.96,9.55a6.383,6.383,0,0,0,3.552,4.277c2.044.82,4.658.375,7.339-1.254l4.256-2.578c4.8-2.906,9.193-9.222,10.913-15.713a28.547,28.547,0,0,1,8.634-14.19l-4.58-10.171a5.559,5.559,0,0,0-5.887-3.656c-5.373.48-12.846,7.265-15.526,17.388-1.765,6.62-6.244,13.065-11.17,16.053ZM110.65,137.224l2.9,9.374a6.29,6.29,0,0,0,3.541,4.265c2.055.832,4.658.387,7.35-1.242l3.351-2.051-3.049-9.843c-.994-3.2-3.038-4.8-5.9-4.687-2.513.023-5.5,1.558-8.266,4.148Zm71.488-3.9,4.468,9.925a5.888,5.888,0,0,0,3.5,3.351,8.659,8.659,0,0,0,7-1.371l4.87-2.941c5.138-3.117,9.74-10.077,11.17-16.931l20.385-95.472a28.687,28.687,0,0,1,8.177-14.717L238.156,5.006c-1.117-3.07-3.128-4.581-5.976-4.394-5.775.387-13.773,8.132-16.007,18.619l-20.385,95.437c-1.508,7.1-6.121,14.061-11.449,17.283Zm-15.4-5.273,1.932,4.359a5.842,5.842,0,0,0,3.485,3.339c1.988.656,4.468.176,7.015-1.359l2.234-1.347-2.078-4.617a5.558,5.558,0,0,0-5.875-3.644,13.063,13.063,0,0,0-6.736,3.234Zm119.5-27.278,3.351,9.69a6.193,6.193,0,0,0,3.541,3.984c2.022.762,4.6.316,7.238-1.289l13.192-7.991a2.246,2.246,0,0,0,0-3.808L301.133,93.87a3.43,3.43,0,0,0-3.541,0ZM242.311,15.236,271.745,99.6a6.17,6.17,0,0,0,3.541,3.984c2.022.773,4.6.316,7.249-1.277l3.061-1.863-29.567-84.7c-1.117-3.07-3.161-4.593-5.987-4.394a13.75,13.75,0,0,0-7.73,3.89Z" transform="translate(0 0.018)" fill="url(#linear-gradient)"/>
        <path id="Path_100" data-name="Path 100" d="M308.652,103.59,295.594,111.5c-5.026,3.046-9.506,1.91-11.17-2.836l-33.1-94.91c-3.775-10.838-19.224-1.043-22.5,14.26l-20.374,95.472c-1.486,7.03-6.1,13.932-11.326,17.107l-4.87,2.941c-4.725,2.871-9,2.039-10.868-2.1l-6.7-14.986c-4.189-9.292-18.107-.527-21.9,13.78h0c-1.754,6.6-6.144,12.889-11.047,15.877l-4.245,2.578c-5.161,3.128-9.718,1.84-11.271-3.175l-6.144-19.8c-3.463-11.178-18.989-1.875-22.508,13.522l-20.419,88.43c-1.609,6.948-6.233,13.768-11.427,16.8L42.18,268.3Z" transform="translate(4.935 1.594)" opacity="0.5" fill="url(#linear-gradient)"/>
        <g id="Group_16" data-name="Group 16" transform="translate(183.736 213.431)" opacity="0.3">
          <path id="Path_101" data-name="Path 101" d="M242.133,209.538v-7.089l-1.877-1.09c-.525,3.339-4.289,5.554-7.428,6.011l-21.391,13.123-9.338,3.515-29.8-16.135.681-.422c-2.547-1.242-3.921-4.1-5.295-6.7L165.674,202l-1.184.352v7.276h0c0,1.394.871,2.777,2.614,3.843l29.869,18.08a13.426,13.426,0,0,0,12.678,0l29.857-18.08a4.675,4.675,0,0,0,2.625-3.773v-.187Z" transform="translate(-164.49 -178.935)" fill="url(#linear-gradient)"/>
          <path id="Path_102" data-name="Path 102" d="M228.8,207.267l-21.391,13.123-8.132,3.082v9.6a12.546,12.546,0,0,0,6.345-1.594l29.857-18.08a4.674,4.674,0,0,0,2.625-3.773v-.187h0v-7.089l-1.709-1h-.179C235.627,204.643,231.919,206.8,228.8,207.267Z" transform="translate(-160.419 -178.832)" opacity="0.3" fill="url(#linear-gradient)"/>
          <path id="Path_103" data-name="Path 103" d="M197.013,227.569l-29.869-18.092c-3.5-2.109-3.5-5.554,0-7.675L197,183.723a13.447,13.447,0,0,1,12.689,0l29.857,18.08c3.5,2.121,3.5,5.566,0,7.675l-29.813,18.092A13.49,13.49,0,0,1,197.013,227.569Z" transform="translate(-164.486 -182.132)" fill="url(#linear-gradient)"/>
          <g id="Group_15" data-name="Group 15" transform="translate(0.036)" opacity="0.3">
            <path id="Path_104" data-name="Path 104" d="M197.013,227.569l-29.869-18.092c-3.5-2.109-3.5-5.554,0-7.675L197,183.723a13.447,13.447,0,0,1,12.689,0l29.857,18.08c3.5,2.121,3.5,5.566,0,7.675l-29.813,18.092A13.49,13.49,0,0,1,197.013,227.569Z" transform="translate(-164.522 -182.132)" fill="url(#linear-gradient)"/>
          </g>
        </g>
        <path id="Path_105" data-name="Path 105" d="M203.244,209.181a11.128,11.128,0,0,1-5.585-1.418L167.8,189.683a3.849,3.849,0,0,1,0-7.136l29.857-18.08a11.905,11.905,0,0,1,11.259,0l29.857,18.08a3.849,3.849,0,0,1,0,7.136l-29.857,18.08A11.094,11.094,0,0,1,203.244,209.181Zm-5.362-1.886a11.381,11.381,0,0,0,10.734,0L238.475,189.2a3.3,3.3,0,0,0,0-6.175l-29.857-18.091a11.423,11.423,0,0,0-10.734,0l-29.858,18.092a3.3,3.3,0,0,0,0,6.175Z" transform="translate(19.352 28.022)" fill="url(#linear-gradient)"/>
        <path id="Path_106" data-name="Path 106" d="M242.133,178.63V167.909l-1.877-1.09c-.525,3.339-4.289,5.554-7.428,6.011l-21.391,13.123-9.338,3.515-29.8-16.135.681-.422c-2.547-1.242-3.921-4.1-5.295-6.7l-2.011,1.254-1.184.352v10.909h0c0,1.394.871,2.777,2.614,3.843l29.869,18.08a13.426,13.426,0,0,0,12.678,0l29.857-18.08a4.67,4.67,0,0,0,2.625-3.714c0-.07,0-.129,0-.187Z" transform="translate(19.246 28.564)" opacity="0.4" fill="url(#linear-gradient)"/>
        <path id="Path_107" data-name="Path 107" d="M242.128,169.973v-7.1l-1.877-1.09c-.525,3.351-4.289,5.554-7.428,6.011l-21.346,13.1-9.338,3.515-29.8-16.135.681-.422c-2.547-1.242-3.921-4.1-5.295-6.7l-2.011,1.254-1.184.352v7.276h0a4.68,4.68,0,0,0,2.614,3.843l29.869,18.08a13.426,13.426,0,0,0,12.678,0l29.857-18.08a4.675,4.675,0,0,0,2.625-3.773v-.187Z" transform="translate(19.25 27.695)" fill="url(#linear-gradient)"/>
        <path id="Path_108" data-name="Path 108" d="M228.8,167.692l-21.391,13.1-8.132,3.082v9.6a12.428,12.428,0,0,0,6.345-1.594l29.857-18.08a4.674,4.674,0,0,0,2.625-3.773v-.187h0v-7.1l-1.709-1h-.179C235.627,165.068,231.919,167.235,228.8,167.692Z" transform="translate(23.316 27.797)" opacity="0.3" fill="url(#linear-gradient)"/>
        <path id="Path_109" data-name="Path 109" d="M172.685,170.844l28.294-17.131a4.283,4.283,0,0,1,4.066,0l27.813,16.838-.313.187c3.139-.457,6.9-2.66,7.428-6.011l-31.2-18.209L199.683,144l-7.395,4.558-24.9,15.584C168.764,166.743,170.138,169.6,172.685,170.844Z" transform="translate(19.585 24.75)" fill="url(#linear-gradient)"/>
        <path id="Path_110" data-name="Path 110" d="M203.014,144.926,199.663,144l-7.395,4.558-24.9,15.584c1.374,2.6,2.748,5.46,5.295,6.7l28.294-17.131a3.987,3.987,0,0,1,2.033-.5Z" transform="translate(19.583 24.75)" opacity="0.3" fill="url(#linear-gradient)"/>
        <path id="Path_111" data-name="Path 111" d="M197.013,187.989l-29.869-18.08c-3.5-2.121-3.5-5.566,0-7.687L197,144.143a13.447,13.447,0,0,1,12.689,0l29.857,18.08c3.5,2.121,3.5,5.566,0,7.687l-29.813,18.08A13.426,13.426,0,0,1,197.013,187.989Zm8.366-41.233a4.283,4.283,0,0,0-4.066,0l-29.857,18.08a1.322,1.322,0,0,0,0,2.461l29.857,18.08a4.283,4.283,0,0,0,4.066,0l29.857-18.08a1.322,1.322,0,0,0,0-2.461Z" transform="translate(19.25 24.502)" fill="url(#linear-gradient)"/>
        <path id="Path_112" data-name="Path 112" d="M234.6,164.3l-29.857-18.08a4.283,4.283,0,0,0-4.066,0L170.818,164.3a1.316,1.316,0,0,0-.737,1.676,1.814,1.814,0,0,1,.737-.8l29.858-18.08a4.283,4.283,0,0,1,4.066,0l29.857,18.08a1.916,1.916,0,0,1,.748.8C235.593,165.385,235.347,164.8,234.6,164.3Z" transform="translate(19.888 25.042)" fill="url(#linear-gradient)"/>
        <path id="Path_113" data-name="Path 113" d="M239.549,166.4l-29.813,18.08a13.426,13.426,0,0,1-12.678,0L167.144,166.4a4.93,4.93,0,0,1-2.591-3.4c-.2,1.523.659,3.105,2.591,4.277l29.869,18.08a13.426,13.426,0,0,0,12.678,0l29.857-18.08c1.932-1.172,2.793-2.742,2.591-4.277a4.93,4.93,0,0,1-2.591,3.4Z" transform="translate(19.25 28.013)" fill="url(#linear-gradient)"/>
        <path id="Path_114" data-name="Path 114" d="M197.726,187.368l-29.858-18.08c-3.038-1.84-3.038-4.827,0-6.655l29.858-18.091a11.7,11.7,0,0,1,10.991,0l29.858,18.092c3.038,1.828,3.038,4.816,0,6.655l-29.857,18.08A11.638,11.638,0,0,1,197.726,187.368Zm8.366-41.233a6.081,6.081,0,0,0-5.741,0l-29.835,18.08c-1.586.961-1.586,2.519,0,3.515l29.857,18.092a6.081,6.081,0,0,0,5.741,0l29.869-18.092c1.575-.949,1.575-2.519,0-3.515Z" transform="translate(19.375 24.608)" fill="url(#linear-gradient)"/>
        <path id="Path_115" data-name="Path 115" d="M204.741,146.215a4.283,4.283,0,0,0-4.066,0L170.818,164.3a1.322,1.322,0,0,0,0,2.461l29.857,18.08a4.283,4.283,0,0,0,4.066,0l29.857-18.08a1.322,1.322,0,0,0,0-2.461Z" transform="translate(19.888 25.042)" opacity="0.4" fill="url(#linear-gradient)"/>
        <g id="Group_18" data-name="Group 18" transform="translate(119.832 253.876)" opacity="0.3">
          <path id="Path_116" data-name="Path 116" d="M184.834,243.985v-7.03l-1.877-1.09c-.525,3.351-4.278,5.554-7.417,6.011l-21.368,13.006-9.327,3.515-29.768-16.053.693-.422c-2.547-1.242-3.921-4.1-5.295-6.7l-2.011,1.254-1.184.352V244.1h0a4.68,4.68,0,0,0,2.614,3.832L139.718,266a13.468,13.468,0,0,0,12.667,0l29.824-18.068a4.674,4.674,0,0,0,2.625-3.761,1,1,0,0,0,0-.187Z" transform="translate(-107.28 -213.461)" fill="url(#linear-gradient)"/>
          <path id="Path_117" data-name="Path 117" d="M171.478,241.709l-21.368,13.065L142,257.89v9.585a12.458,12.458,0,0,0,6.333-1.582l29.824-18.068a4.674,4.674,0,0,0,2.625-3.761.991.991,0,0,0,0-.187h0v-7.03l-1.709-1h-.212C178.3,239.084,174.594,241.252,171.478,241.709Z" transform="translate(-103.218 -213.352)" opacity="0.3" fill="url(#linear-gradient)"/>
          <path id="Path_118" data-name="Path 118" d="M139.718,261.984l-29.824-18.056c-3.485-2.121-3.485-5.566,0-7.675l29.824-18.021a13.468,13.468,0,0,1,12.667,0L182.209,236.3c3.5,2.109,3.5,5.554,0,7.675l-29.824,18.056A13.4,13.4,0,0,1,139.718,261.984Z" transform="translate(-107.28 -216.65)" fill="url(#linear-gradient)"/>
          <g id="Group_17" data-name="Group 17" opacity="0.3">
            <path id="Path_119" data-name="Path 119" d="M139.718,261.984l-29.824-18.056c-3.485-2.121-3.485-5.566,0-7.675l29.824-18.021a13.468,13.468,0,0,1,12.667,0L182.209,236.3c3.5,2.109,3.5,5.554,0,7.675l-29.824,18.056A13.4,13.4,0,0,1,139.718,261.984Z" transform="translate(-107.28 -216.65)" fill="url(#linear-gradient)"/>
          </g>
        </g>
        <path id="Path_120" data-name="Path 120" d="M145.962,242.612a10.967,10.967,0,0,1-5.585-1.418l-29.824-18.056a3.837,3.837,0,0,1,0-7.124l29.824-18.068a11.948,11.948,0,0,1,11.248,0l29.824,18.068a3.837,3.837,0,0,1,0,7.124l-29.9,18.056A10.978,10.978,0,0,1,145.962,242.612Zm0-45.533a10.5,10.5,0,0,0-5.362,1.348l-29.824,18.056a3.3,3.3,0,0,0,0,6.175l29.835,18.068a11.338,11.338,0,0,0,10.712,0l29.824-18.068a3.3,3.3,0,0,0,0-6.175l-29.824-18.056a10.472,10.472,0,0,0-5.362-1.348Z" transform="translate(12.653 33.773)" fill="url(#linear-gradient)"/>
        <path id="Path_121" data-name="Path 121" d="M184.834,212.1v-10.71l-1.877-1.09c-.525,3.339-4.278,5.542-7.417,6.011l-21.368,13.1-9.327,3.515-29.768-16.111.693-.422c-2.547-1.242-3.921-4.1-5.295-6.7l-2.011,1.254-1.184.352v10.9h0a4.68,4.68,0,0,0,2.614,3.832l29.824,18.068a13.468,13.468,0,0,0,12.667,0l29.824-18.068a4.674,4.674,0,0,0,2.625-3.761,1.063,1.063,0,0,0,0-.187Z" transform="translate(12.552 34.314)" opacity="0.4" fill="url(#linear-gradient)"/>
        <path id="Path_122" data-name="Path 122" d="M184.834,203.439v-7.03l-1.877-1.09c-.525,3.339-4.278,5.542-7.417,6L154.172,214.43l-9.327,3.515-29.768-16.123.693-.41c-2.547-1.254-3.921-4.1-5.295-6.7l-2.011,1.254-1.184.352v7.265h0c0,1.394.871,2.777,2.614,3.843l29.824,18.056a13.4,13.4,0,0,0,12.667,0l29.824-18.056a4.674,4.674,0,0,0,2.625-3.773,1.141,1.141,0,0,0,0-.187Z" transform="translate(12.552 33.459)" fill="url(#linear-gradient)"/>
        <path id="Path_123" data-name="Path 123" d="M171.478,201.159,150.109,214.27,142,217.34v9.585a12.459,12.459,0,0,0,6.333-1.582l29.824-18.056a4.674,4.674,0,0,0,2.625-3.773,1.131,1.131,0,0,0,0-.187h0V196.3l-1.709-1h-.212C178.3,198.546,174.594,200.713,171.478,201.159Z" transform="translate(16.614 33.56)" opacity="0.3" fill="url(#linear-gradient)"/>
        <path id="Path_124" data-name="Path 124" d="M139.718,221.441l-29.824-18.056c-3.485-2.121-3.485-5.554,0-7.675l29.824-18.056a13.4,13.4,0,0,1,12.667,0l29.824,18.056c3.5,2.121,3.5,5.554,0,7.675l-29.824,18.056a13.4,13.4,0,0,1-12.667,0Z" transform="translate(12.552 30.256)" fill="url(#linear-gradient)"/>
        <path id="Path_125" data-name="Path 125" d="M182.208,199.878l-29.824,18.056a13.4,13.4,0,0,1-12.667,0l-29.824-18.056a4.919,4.919,0,0,1-2.58-3.4c-.212,1.535.648,3.105,2.58,4.277l29.824,18.068a13.468,13.468,0,0,0,12.667,0l29.824-18.068c1.932-1.172,2.792-2.742,2.591-4.277A4.906,4.906,0,0,1,182.208,199.878Z" transform="translate(12.552 33.763)" fill="url(#linear-gradient)"/>
      </g>
    </g>
  </g>
</svg>
