<svg xmlns="http://www.w3.org/2000/svg" width="96.44" height="96.44" viewBox="0 0 96.44 96.44">
  <g id="idea" transform="translate(-2.293 -2.001)">
    <path id="Path_174" data-name="Path 174" d="M86.648,90.476l-15.32-.9a4.86,4.86,0,0,1-4.584-4.836V80.11a7.354,7.354,0,0,0,3.787-.409,12.657,12.657,0,0,0,3.956-2.965,27.359,27.359,0,0,0,7.335-16.2l.076-.748a5.386,5.386,0,0,1,3.668-4.607c.714-.229,1.453-.407,2.2-.588a26.165,26.165,0,0,0,3.566-1.053,3.222,3.222,0,0,0,1.43-4.879L82.024,30.811C77.6,11.482,63.005.263,44.764,2.221a37.084,37.084,0,0,0-15.82,68.326,11.246,11.246,0,0,1,5.337,9.539v4.658A4.862,4.862,0,0,1,29.7,89.581l-15.32.9A17.884,17.884,0,0,0,2.8,95.653l-.5.5,2.3,2.284.5-.5A14.635,14.635,0,0,1,14.569,93.7l15.32-.9a8.1,8.1,0,0,0,7.639-8.061V80.086a14.46,14.46,0,0,0-6.847-12.269A33.817,33.817,0,0,1,15.793,30.835C19.1,16.956,30.6,6.986,45.111,5.432c16.6-1.767,29.836,8.567,33.8,26.336a1.615,1.615,0,0,0,.192.48L90.015,50.384c.034.053.07.107.107.157a23.321,23.321,0,0,1-3.13.913c-.825.2-1.639.4-2.427.654a8.626,8.626,0,0,0-5.9,7.352l-.076.748A24.12,24.12,0,0,1,72.142,74.5a9.831,9.831,0,0,1-2.894,2.234c-4.162,1.772-15.1-5.821-21.007-11.03L46.088,68.12c1.273,1.123,9.968,8.635,17.41,11.2v5.421a8.1,8.1,0,0,0,7.639,8.061l15.32.9a14.643,14.643,0,0,1,9.476,4.235l.5.5,2.3-2.284-.5-.5a17.876,17.876,0,0,0-11.58-5.178Z" fill="#fff"/>
    <path id="Path_175" data-name="Path 175" d="M31,13H30V12H28v1H27a1,1,0,0,0-1,1v3a1,1,0,0,0,1,1h3v1H26v1a1,1,0,0,0,1,1h1v1h2V21h1a1,1,0,0,0,1-1V17a1,1,0,0,0-1-1H28V15h4V14A1,1,0,0,0,31,13Z" transform="translate(16.433 7.389)" fill="#fff"/>
    <path id="Path_176" data-name="Path 176" d="M45,16.975A10.974,10.974,0,0,0,36.454,6.233a22.391,22.391,0,0,0-10.894.214,20.938,20.938,0,0,0-10.287,6.437l-.738.846a12,12,0,0,0-2.912,6.611l-.029.265A12.063,12.063,0,0,0,23.582,34H31a4,4,0,0,0,3.457-6.011A11.038,11.038,0,0,0,45,16.975ZM33.975,26H28v2h3a2,2,0,1,1,0,4H23.582a10.133,10.133,0,0,1-7.115-2.947,10.012,10.012,0,0,1-2.886-8.228l.029-.265a10.017,10.017,0,0,1,2.429-5.515l.739-.846a18.948,18.948,0,0,1,9.307-5.823,20.391,20.391,0,0,1,9.92-.195A9.025,9.025,0,0,1,33.975,26Z" transform="translate(13.173)" fill="#fff"/>
    <path id="Path_177" data-name="Path 177" d="M39,14H37v1H36v2h1v1h2V17h1V15H39Z" transform="translate(22.522 7.912)" fill="#fff"/>
    <path id="Path_178" data-name="Path 178" d="M23,28h2v2H23Z" transform="translate(13.354 16.549)" fill="#fff"/>
    <path id="Path_179" data-name="Path 179" d="M19,16h2v2H19Z" transform="translate(10.774 8.911)" fill="#fff"/>
    <path id="Path_180" data-name="Path 180" d="M19,22H17v1H16v2h1v1h2V25h1V23H19Z" transform="translate(9.159 13.187)" fill="#fff"/>
    <path id="Path_181" data-name="Path 181" d="M34,21h2v2H34Z" transform="translate(20.448 12.093)" fill="#fff"/>
  </g>
</svg>
